<svg width="192" height="164" viewBox="0 0 192 164" fill="none" xmlns="http://www.w3.org/2000/svg">
<g clip-path="url(#clip0_715_12)">
<path d="M36.3943 103.297H0.030108C-0.391506 90.4379 3.71923 76.5072 5.82729 71.1494L36.3943 103.297Z" fill="#033F40"/>
<path d="M156.027 103.297H191.835C192.25 90.4379 188.202 76.5072 186.126 71.1494L156.027 103.297Z" fill="#033F40"/>
<path d="M179.712 57.9286L95.3892 163.903L11.0664 57.7089C13.3013 53.5805 19.3182 43.6375 25.507 36.8916C30.8706 44.9023 74.4157 112.207 95.3892 144.443C116.363 112.274 159.908 45.1486 165.272 37.1545C171.46 43.8864 177.477 53.809 179.712 57.9286Z" fill="#1E6A66"/>
<path d="M155.241 27.1427L95.6877 132.283L35.8711 26.9065C38.6943 24.6177 46.7759 18.9835 56.516 14.7578C60.7512 25.5332 84.4529 83.8227 95.6573 111.466C106.812 83.885 130.471 25.7725 134.687 15.0213C144.384 19.2375 152.43 24.859 155.241 27.1427Z" fill="#318480"/>
<path d="M120.193 0L95.9496 87.485L71.707 0H120.193Z" fill="#E02C17"/>
</g>
<defs>
<clipPath id="clip0_715_12">
<rect width="192" height="163.902" fill="white"/>
</clipPath>
</defs>
</svg>
