<svg width="200" height="200" viewBox="0 0 200 200" fill="none" xmlns="http://www.w3.org/2000/svg">
<g id="advantage-business-competition-svgrepo-com 1">
<g id="Group">
<g id="Vector">
<path d="M99.4141 15.8398C100.748 15.8398 102.148 14.7574 102.148 13.4227V7.67695C102.148 6.34258 100.748 5.25977 99.4141 5.25977C98.0797 5.25977 96.6797 6.34219 96.6797 7.67695V13.4227C96.6797 14.757 98.0797 15.8398 99.4141 15.8398Z" fill="#FFDA8D"/>
<path d="M118.933 23.4691C119.552 23.4691 120.17 23.2328 120.642 22.7609L124.705 18.6977C125.649 17.7531 125.649 16.2227 124.705 15.2797C123.761 14.3359 122.232 14.3359 121.287 15.2797L117.224 19.343C116.28 20.2867 116.28 21.8172 117.224 22.7609C117.696 23.2328 118.314 23.4691 118.933 23.4691Z" fill="#FFDA8D"/>
<path d="M78.7238 23.45C79.1961 23.9223 79.8141 24.1582 80.4328 24.1582C81.0516 24.1582 81.6695 23.9223 82.1418 23.45C83.0863 22.507 83.0863 20.9766 82.1418 20.032L78.0785 15.9695C77.1348 15.025 75.6051 15.025 74.6613 15.9695C73.7168 16.9125 73.7168 18.443 74.6613 19.3867L78.7238 23.45Z" fill="#FFDA8D"/>
<path d="M67.3117 49.5609C66.8965 47.459 66.6852 45.2719 66.6852 43.0606C66.6852 40.6113 66.9539 38.1723 67.4832 35.8109C67.7754 34.5094 66.9566 33.216 65.6535 32.9238C64.3609 32.6363 63.0586 33.4496 62.7656 34.7535C62.159 37.4613 61.8508 40.2566 61.8508 43.0606C61.8508 45.5859 62.0926 48.0883 62.5703 50.4992C62.7977 51.6504 63.8078 52.4477 64.9387 52.4477C65.0934 52.4477 65.2516 52.4324 65.4102 52.4004C66.7199 52.1426 67.5711 50.8703 67.3117 49.5609Z" fill="#0DBDB8"/>
<path d="M132.492 56.641C131.299 56.0461 129.846 56.5344 129.252 57.7297C123.632 69.0387 112.302 76.066 99.6836 76.0699C87.0645 76.066 75.7355 69.0387 70.116 57.7297C69.5211 56.534 68.0676 56.0457 66.8758 56.641C65.6801 57.2348 65.1926 58.5645 65.7863 59.7609C72.2262 72.7203 85.2047 80.6641 99.6648 80.6641C99.6672 80.6641 99.6703 80.6641 99.6727 80.6641C99.6797 80.6641 99.6879 80.6641 99.6949 80.6641C99.698 80.6641 99.7004 80.6641 99.7027 80.6641C114.163 80.6641 127.143 72.7203 133.582 59.7609C134.175 58.5645 133.688 57.2348 132.492 56.641Z" fill="#056461"/>
<path d="M136.784 50.5031C137.27 48.0672 137.516 45.5637 137.516 43.0605C137.516 40.2508 137.205 37.4453 136.593 34.723C136.3 33.4199 135.005 32.5996 133.704 32.8957C132.403 33.1879 131.584 34.4813 131.877 35.7836C132.411 38.1586 132.682 40.607 132.682 43.0605C132.682 45.2457 132.466 47.432 132.042 49.557C131.781 50.8664 132.631 52.1387 133.94 52.4004C134.099 52.4324 134.258 52.4477 134.415 52.4477C135.544 52.448 136.553 51.6519 136.784 50.5031Z" fill="#0DBDB8"/>
<path d="M123.036 89.2578H75.9688C74.5191 89.2578 72.8516 90.9711 72.8516 92.4305V192.174C72.8516 193.625 74.5195 194.727 75.9688 194.727H123.035C124.485 194.727 125.586 193.625 125.586 192.174V92.4305C125.586 90.9711 124.485 89.2578 123.036 89.2578Z" fill="#056461"/>
<path d="M81.1883 40.9086L89.8125 47.3277C90.452 47.7922 90.7187 48.6918 90.4754 49.4434L87.1809 59.6203C86.6355 61.3004 88.5578 62.7168 89.9871 61.6785L98.6113 55.4211C99.2508 54.9566 100.116 54.9613 100.755 55.4258L109.379 61.6949C110.808 62.7332 112.731 61.3367 112.185 59.657L108.891 49.5191C108.647 48.7676 108.915 47.9449 109.553 47.4809L118.178 40.9082C119.608 39.8699 118.872 37.3043 117.106 37.3043H106.446C105.656 37.3043 104.956 37.1012 104.712 36.3496L101.417 26.3641C100.872 24.6832 98.4953 24.7602 97.9488 26.4402L94.6551 36.3113C94.4102 37.0629 93.7098 37.3043 92.9203 37.3043H82.259C80.4934 37.3047 79.7594 39.8703 81.1883 40.9086Z" fill="#FAC149"/>
<path d="M63.4766 143.066C63.4766 141.61 62.2961 140.43 60.8398 140.43H13.3789C11.9227 140.43 10.7422 141.61 10.7422 143.066V192.48C10.7422 193.937 11.9227 195.117 13.3789 195.117H60.8398C62.2961 195.117 63.4766 193.937 63.4766 192.48V143.066Z" fill="#056461"/>
<path d="M31.8984 111.287C32.3043 111.583 32.4738 112.105 32.3188 112.582L31.1797 116.086C30.834 117.152 32.0531 118.037 32.9598 117.379L35.9414 115.213C36.3473 114.919 36.8957 114.919 37.3008 115.213L40.2824 117.379C41.1887 118.038 42.4078 117.152 42.0625 116.086L40.9234 112.582C40.7687 112.105 40.9379 111.583 41.343 111.287L44.3254 109.025C45.2316 108.368 44.7656 106.836 43.6457 106.836H39.9598C39.4594 106.836 39.0145 106.61 38.8605 106.134L37.7215 102.678C37.3758 101.612 35.8676 101.636 35.5219 102.702L34.3828 106.121C34.2281 106.598 33.7832 106.836 33.282 106.836H29.5977C28.4777 106.836 28.0113 108.368 28.918 109.025L31.8984 111.287Z" fill="#FAC149"/>
<path d="M36.6211 131.837C48.391 131.837 57.966 122.262 57.966 110.493C57.966 98.7238 48.391 89.1484 36.6211 89.1484C24.852 89.1484 15.2762 98.7242 15.2762 110.493C15.2762 122.263 24.852 131.837 36.6211 131.837ZM36.6211 93.9824C45.7398 93.9824 53.132 101.375 53.132 110.493C53.132 119.612 45.7398 127.004 36.6211 127.004C27.5031 127.004 20.1102 119.612 20.1102 110.493C20.1102 101.375 27.5031 93.9824 36.6211 93.9824Z" fill="#0DBDB8"/>
<path d="M188.867 143.066C188.867 141.61 187.687 140.43 186.23 140.43H138.77C137.313 140.43 136.133 141.61 136.133 143.066V192.48C136.133 193.937 137.313 195.117 138.77 195.117H186.23C187.687 195.117 188.867 193.937 188.867 192.48V143.066Z" fill="#056461"/>
<path d="M157.66 111.287C158.066 111.583 158.235 112.105 158.08 112.582L156.942 116.086C156.595 117.152 157.815 118.037 158.722 117.379L161.703 115.213C162.109 114.919 162.657 114.919 163.062 115.213L166.044 117.379C166.95 118.038 168.17 117.152 167.825 116.086L166.686 112.582C166.53 112.105 166.7 111.583 167.105 111.287L170.087 109.025C170.993 108.368 170.527 106.836 169.407 106.836H165.721C165.22 106.836 164.777 106.61 164.622 106.134L163.483 102.678C163.137 101.612 161.629 101.636 161.283 102.702L160.144 106.121C159.989 106.598 159.545 106.836 159.044 106.836H155.359C154.239 106.836 153.773 108.368 154.679 109.025L157.66 111.287Z" fill="#FAC149"/>
<path d="M162.382 131.837C174.152 131.837 183.728 122.262 183.728 110.493C183.728 98.7238 174.152 89.148 162.382 89.148C150.613 89.148 141.038 98.7238 141.038 110.493C141.038 122.262 150.613 131.837 162.382 131.837ZM162.382 93.9824C171.501 93.9824 178.894 101.375 178.894 110.493C178.894 119.612 171.501 127.004 162.382 127.004C153.264 127.004 145.871 119.612 145.871 110.493C145.871 101.375 153.264 93.9824 162.382 93.9824Z" fill="#0DBDB8"/>
</g>
</g>
</g>
</svg>
