<svg width="180" height="180" viewBox="0 0 180 180" fill="none" xmlns="http://www.w3.org/2000/svg">
<g id="chemistry-lab-instrument-svgrepo-com 1" clip-path="url(#clip0_300_54)">
<g id="Group">
<path id="Vector" d="M170.308 148.217L123.085 60.8492V8.80261C123.085 3.90438 118.987 0 114.093 0H65.8916C60.9934 0 56.9628 3.90438 56.9628 8.80261V60.8492L9.70003 148.217C6.09538 154.878 6.27679 162.967 10.1536 169.478C14.0303 175.981 21.0622 180 28.6343 180H151.346C158.919 180 165.966 175.981 169.843 169.478C173.716 162.967 173.913 154.878 170.308 148.217ZM97.7971 111.665C102.029 111.665 105.456 115.093 105.456 119.324C105.456 123.552 102.021 126.983 97.7971 126.983C93.5694 126.983 90.1382 123.552 90.1382 119.324C90.1382 115.104 93.5654 111.665 97.7971 111.665ZM76.2599 65.6134C80.4916 65.6134 83.9188 69.0445 83.9188 73.2762C83.9188 77.504 80.4916 80.9351 76.2599 80.9351C72.0282 80.9351 68.601 77.504 68.601 73.2762C68.605 69.0445 72.0282 65.6134 76.2599 65.6134ZM76.2599 92.3525C83.1143 92.3525 88.6751 97.9133 88.6751 104.764C88.6751 111.618 83.1143 117.175 76.2599 117.175C69.4016 117.175 63.8448 111.618 63.8448 104.764C63.8448 97.9093 69.4016 92.3525 76.2599 92.3525ZM147.556 156.025C145.963 158.739 143.049 160.34 139.913 160.34H40.0675C36.9282 160.34 34.0176 158.739 32.4243 156.025C30.831 153.312 30.7876 149.999 32.3139 147.247L44.315 125.674C46.0266 122.59 49.4025 120.823 52.9125 121.158C68.8495 122.677 86.7623 136.31 102.77 135.703C111.344 135.376 119.303 132.252 126.883 128.076C131.162 125.709 136.545 127.259 138.919 131.534L147.671 147.239C149.189 149.995 149.15 153.316 147.556 156.025Z" fill="#056461"/>
</g>
</g>
<defs>
<clipPath id="clip0_300_54">
<rect width="180" height="180" fill="white"/>
</clipPath>
</defs>
</svg>
