<svg width="800" height="432" viewBox="0 0 800 432" fill="none" xmlns="http://www.w3.org/2000/svg">
<path d="M375.808 266.733H332.262L310.482 229.008C307.477 223.809 301.97 220.962 296.364 221.109C293.812 221.172 291.238 221.857 288.872 223.223C281.314 227.588 278.722 237.255 283.089 244.815L304.876 282.554L283.105 320.267C278.739 327.826 281.331 337.494 288.889 341.858C291.38 343.296 294.096 343.979 296.779 343.979C302.242 343.979 307.555 341.144 310.482 336.073L332.262 298.348H375.808C384.539 298.348 391.614 291.271 391.614 282.542C391.614 273.81 384.539 266.733 375.808 266.733Z" fill="#056461" fill-opacity="0.2"/>
<path d="M375.808 0.578613H323.119C317.471 0.578613 312.257 3.59239 309.433 8.48188L283.089 54.1101C278.722 61.6698 281.314 71.3371 288.872 75.7018C291.363 77.1391 294.079 77.822 296.762 77.822C302.225 77.822 307.538 74.9873 310.466 69.9166L332.245 32.1917H375.808C384.539 32.1917 391.614 25.1167 391.614 16.3851C391.614 7.65572 384.539 0.578613 375.808 0.578613Z" fill="#056461" fill-opacity="0.2"/>
<path d="M424.095 32.1917H467.658L489.442 69.9166C492.369 74.9873 497.682 77.822 503.145 77.822C505.824 77.822 508.547 77.1391 511.031 75.7018C518.593 71.3371 521.181 61.6698 516.819 54.1101L490.474 8.48188C487.65 3.59239 482.432 0.578613 476.784 0.578613H424.095C415.364 0.578613 408.289 7.65361 408.289 16.3851C408.289 25.1167 415.364 32.1917 424.095 32.1917Z" fill="#056461" fill-opacity="0.2"/>
<path d="M145.329 399.809H101.767L79.9852 362.084C75.6205 354.523 65.9512 351.939 58.3935 356.299C50.8338 360.664 48.2436 370.331 52.6083 377.891L78.9526 423.519C81.7767 428.409 86.9928 431.422 92.641 431.422H145.329C154.061 431.422 161.136 424.347 161.136 415.616C161.136 406.884 154.061 399.809 145.329 399.809Z" fill="#056461" fill-opacity="0.2"/>
<path d="M55.8392 320.267L34.0578 282.542L55.8392 244.817C60.2039 237.257 57.6137 227.59 50.054 223.225C42.4901 218.86 32.8249 221.446 28.4623 229.01L2.11807 274.639C-0.706025 279.528 -0.706025 285.556 2.11807 290.445L28.4623 336.073C31.3918 341.144 36.7028 343.979 42.1655 343.979C44.8484 343.979 47.5671 343.296 50.054 341.858C57.6137 337.494 60.2039 327.826 55.8392 320.267Z" fill="#056461" fill-opacity="0.2"/>
<path d="M145.329 133.655H92.641C86.9928 133.655 81.7767 136.669 78.9526 141.558L52.6083 187.186C48.2436 194.746 50.8338 204.413 58.3935 208.778C60.8846 210.215 63.6013 210.898 66.282 210.898C71.7448 210.898 77.0579 208.064 79.9852 202.993L101.767 165.268H145.329C154.061 165.268 161.136 158.193 161.136 149.461C161.136 140.73 154.061 133.655 145.329 133.655Z" fill="#056461" fill-opacity="0.2"/>
<path d="M193.613 165.268H237.159L258.94 202.993C261.868 208.064 267.181 210.898 272.644 210.898C272.644 210.898 272.648 210.898 272.652 210.898C272.652 210.898 272.656 210.898 272.66 210.898C275.339 210.898 278.062 210.215 280.547 208.778C288.109 204.413 290.697 194.746 286.334 187.186L264.542 149.447L286.317 111.734C290.68 104.175 288.092 94.5073 280.53 90.1426C272.964 85.78 263.303 88.3639 258.94 95.9278L237.159 133.653H193.613C184.882 133.653 177.807 140.728 177.807 149.459C177.807 158.191 184.884 165.268 193.613 165.268Z" fill="#056461" fill-opacity="0.2"/>
<path d="M280.549 356.297C272.987 351.935 263.322 354.521 258.959 362.082L237.178 399.807H193.615C184.884 399.807 177.809 406.884 177.809 415.614C177.809 424.345 184.884 431.42 193.615 431.42H246.304C251.952 431.42 257.17 428.407 259.994 423.517L286.338 377.889C290.699 370.331 288.111 360.664 280.549 356.297Z" fill="#056461" fill-opacity="0.2"/>
<path d="M606.381 399.809H562.818L541.039 362.084C536.672 354.523 527.002 351.939 519.445 356.299C511.887 360.664 509.295 370.331 513.662 377.891L540.006 423.519C542.83 428.409 548.046 431.422 553.692 431.422H606.381C615.112 431.422 622.187 424.347 622.187 415.616C622.187 406.884 615.112 399.809 606.381 399.809Z" fill="#056461" fill-opacity="0.2"/>
<path d="M516.892 320.267L495.109 282.542L516.892 244.817C521.255 237.257 518.667 227.59 511.105 223.225C509.196 222.123 507.149 221.465 505.088 221.219C498.972 220.456 492.715 223.333 489.442 229.006L467.658 266.735H424.095C415.364 266.735 408.289 273.81 408.289 282.542C408.289 291.271 415.364 298.348 424.095 298.348H467.732L489.516 336.073C492.443 341.144 497.756 343.979 503.219 343.979C505.897 343.979 508.62 343.296 511.105 341.858C518.667 337.494 521.257 327.826 516.892 320.267Z" fill="#056461" fill-opacity="0.2"/>
<path d="M606.381 133.655H562.74L540.96 95.9299C536.594 88.368 526.924 85.7842 519.367 90.1447C511.809 94.5094 509.217 104.177 513.584 111.736L535.363 149.461L513.584 187.186C509.217 194.746 511.809 204.413 519.367 208.778C521.858 210.215 524.574 210.898 527.257 210.898C527.27 210.898 527.283 210.896 527.295 210.896C527.308 210.896 527.325 210.898 527.337 210.898C532.8 210.898 538.113 208.064 541.041 202.993L562.82 165.268H606.383C615.114 165.268 622.189 158.193 622.189 149.461C622.187 140.73 615.112 133.655 606.381 133.655Z" fill="#056461" fill-opacity="0.2"/>
<path d="M654.668 165.268H698.231L720.015 202.993C722.942 208.064 728.255 210.898 733.718 210.898C736.399 210.898 739.12 210.215 741.604 208.778C749.166 204.413 751.754 194.746 747.392 187.186L721.047 141.558C718.223 136.669 713.005 133.655 707.357 133.655H654.668C645.937 133.655 638.862 140.73 638.862 149.461C638.862 158.191 645.939 165.268 654.668 165.268Z" fill="#056461" fill-opacity="0.2"/>
<path d="M797.882 274.636L771.538 229.008C767.171 221.448 757.501 218.858 749.944 223.223C742.386 227.588 739.794 237.255 744.161 244.815L765.94 282.54L744.161 320.265C739.794 327.824 742.386 337.492 749.944 341.856C752.435 343.294 755.152 343.977 757.834 343.977C763.297 343.977 768.61 341.142 771.538 336.071L797.882 290.443C800.706 285.553 800.706 279.528 797.882 274.636Z" fill="#056461" fill-opacity="0.2"/>
<path d="M741.604 356.297C734.042 351.935 724.377 354.521 720.015 362.082L698.231 399.807H654.668C645.937 399.807 638.862 406.884 638.862 415.614C638.862 424.345 645.937 431.42 654.668 431.42H707.357C713.005 431.42 718.223 428.407 721.047 423.517L747.392 377.889C751.756 370.331 749.166 360.664 741.604 356.297Z" fill="#056461" fill-opacity="0.2"/>
</svg>
