<svg width="563" height="657" viewBox="0 0 563 657" fill="none" xmlns="http://www.w3.org/2000/svg">
<path d="M364.453 331.641L378.516 391.406L454.688 363.281L458.203 373.828L377.344 403.125L316.406 556.641L305.859 551.953L366.797 403.125L242.578 384.375L289.453 543.75C291.797 549.609 288.281 556.641 281.25 557.812C274.219 558.984 268.359 556.641 267.188 549.609L216.797 379.688L104.297 363.281L105.469 351.562L212.109 367.969L191.016 297.656L105.469 341.016L94.9219 319.922L189.844 271.875L257.812 112.5L92.5781 318.75L83.2031 311.719L257.812 92.5781L264.844 97.2656L284.766 105.469L214.453 271.875L344.531 302.344L297.656 105.469L309.375 103.125L358.594 307.031L458.203 330.469C464.062 331.641 468.75 338.672 466.406 344.531C465.234 350.391 458.203 355.078 452.344 352.734L364.453 331.641ZM351.562 328.125L215.625 296.484L237.891 371.484L366.797 390.234L351.562 328.125ZM317.578 98.4375L326.953 91.4062L480.469 308.203L471.094 315.234L317.578 98.4375ZM468.75 384.375L478.125 391.406L330.469 567.188L321.094 560.156L468.75 384.375ZM264.844 560.156L256.641 568.359L86.7187 390.234L94.9219 382.031L264.844 560.156Z" fill="#083332"/>
<path d="M152.344 281.25C152.344 293.682 157.282 305.605 166.073 314.396C174.864 323.186 186.787 328.125 199.219 328.125C211.651 328.125 223.574 323.186 232.364 314.396C241.155 305.605 246.094 293.682 246.094 281.25C246.094 268.818 241.155 256.895 232.364 248.104C223.574 239.314 211.651 234.375 199.219 234.375C186.787 234.375 174.864 239.314 166.073 248.104C157.282 256.895 152.344 268.818 152.344 281.25Z" fill="#2F9C91"/>
<path d="M333.984 398.438C333.984 403.824 335.045 409.157 337.107 414.134C339.168 419.11 342.189 423.631 345.998 427.44C349.806 431.249 354.328 434.27 359.304 436.331C364.28 438.392 369.614 439.453 375 439.453C380.386 439.453 385.72 438.392 390.696 436.331C395.672 434.27 400.194 431.249 404.002 427.44C407.811 423.631 410.832 419.11 412.893 414.134C414.955 409.157 416.016 403.824 416.016 398.438C416.016 393.051 414.955 387.718 412.893 382.741C410.832 377.765 407.811 373.244 404.002 369.435C400.194 365.626 395.672 362.605 390.696 360.544C385.72 358.483 380.386 357.422 375 357.422C369.614 357.422 364.28 358.483 359.304 360.544C354.328 362.605 349.806 365.626 345.998 369.435C342.189 373.244 339.168 377.765 337.107 382.741C335.045 387.718 333.984 393.051 333.984 398.438Z" fill="#2F9C91"/>
<path d="M58.5938 410.156C25.7812 410.156 0 384.375 0 351.562C0 318.75 25.7812 292.969 58.5938 292.969C91.4062 292.969 117.188 318.75 117.188 351.562C117.188 384.375 91.4062 410.156 58.5938 410.156ZM58.5938 386.719C78.5156 386.719 93.75 371.484 93.75 351.562C93.75 331.641 78.5156 316.406 58.5938 316.406C38.6719 316.406 23.4375 331.641 23.4375 351.562C23.4375 371.484 38.6719 386.719 58.5938 386.719ZM292.969 656.25C260.156 656.25 234.375 630.469 234.375 597.656C234.375 564.844 260.156 539.062 292.969 539.062C325.781 539.062 351.562 564.844 351.562 597.656C351.562 630.469 325.781 656.25 292.969 656.25ZM292.969 632.812C312.891 632.812 328.125 617.578 328.125 597.656C328.125 577.734 312.891 562.5 292.969 562.5C273.047 562.5 257.812 577.734 257.812 597.656C257.812 617.578 273.047 632.812 292.969 632.812ZM292.969 117.188C260.156 117.188 234.375 91.4062 234.375 58.5938C234.375 25.7812 260.156 0 292.969 0C325.781 0 351.562 25.7812 351.562 58.5938C351.562 91.4062 325.781 117.188 292.969 117.188ZM292.969 93.75C312.891 93.75 328.125 78.5156 328.125 58.5938C328.125 38.6719 312.891 23.4375 292.969 23.4375C273.047 23.4375 257.812 38.6719 257.812 58.5938C257.812 78.5156 273.047 93.75 292.969 93.75ZM503.906 410.156C471.094 410.156 445.312 384.375 445.312 351.562C445.312 318.75 471.094 292.969 503.906 292.969C536.719 292.969 562.5 318.75 562.5 351.562C562.5 384.375 536.719 410.156 503.906 410.156ZM503.906 386.719C523.828 386.719 539.062 371.484 539.062 351.562C539.062 331.641 523.828 316.406 503.906 316.406C483.984 316.406 468.75 331.641 468.75 351.562C468.75 371.484 483.984 386.719 503.906 386.719Z" fill="#2F9C91"/>
</svg>
