<svg width="180" height="180" viewBox="0 0 180 180" fill="none" xmlns="http://www.w3.org/2000/svg">
<g id="Frame 4">
<g id="economy">
<path id="Vector" d="M18.9028 32.428C20.7616 32.428 22.2685 30.7962 22.2685 28.7833C22.2685 26.7704 20.7616 25.1387 18.9028 25.1387C17.044 25.1387 15.5371 26.7704 15.5371 28.7833C15.5371 30.7962 17.044 32.428 18.9028 32.428Z" fill="#024442" fill-opacity="0.1"/>
<path id="Vector_2" d="M53.147 71.3185H46.9259C36.0717 71.3185 25.662 75.9877 17.9869 84.299C10.3118 92.6103 6 103.883 6 115.637V122.455C6.00072 130.561 8.05596 138.511 11.9418 145.44C15.8276 152.368 21.3949 158.009 28.037 161.747V177H46.9259L50.0741 170.182C51.4092 170.313 116.185 170.182 116.185 170.182L119.333 177H135.074V163.364C149.207 157.37 160.595 145.83 163.407 129.273L176 122.455V98.5912H160.259C156.196 89.4634 149.589 81.9471 141.37 77.102V54.273C136.102 54.1852 130.923 55.7471 126.455 58.771C121.987 61.7949 118.421 66.1521 116.185 71.3185H103.753" stroke="#024442" stroke-opacity="0.1" stroke-width="5" stroke-linecap="round" stroke-linejoin="round"/>
<path id="Vector_3" d="M136.65 102C139.258 102 141.372 99.7103 141.372 96.8861C141.372 94.0619 139.258 91.7725 136.65 91.7725C134.042 91.7725 131.928 94.0619 131.928 96.8861C131.928 99.7103 134.042 102 136.65 102Z" fill="#024442" fill-opacity="0.1"/>
<path id="Vector_4" d="M40.6309 84.9551H116.186" stroke="#024442" stroke-opacity="0.1" stroke-width="5" stroke-linecap="round" stroke-linejoin="round"/>
<path id="Vector_5" d="M78.4073 84.9543C95.794 84.9543 109.889 69.6913 109.889 50.8634C109.889 32.0355 95.794 16.7725 78.4073 16.7725C61.0205 16.7725 46.9258 32.0355 46.9258 50.8634C46.9258 69.6913 61.0205 84.9543 78.4073 84.9543Z" stroke="#024442" stroke-opacity="0.1" stroke-width="5" stroke-linecap="round" stroke-linejoin="round"/>
<path id="Vector_6" d="M90.9996 33.8184L65.8145 67.9093" stroke="#024442" stroke-opacity="0.1" stroke-width="5" stroke-linecap="round" stroke-linejoin="round"/>
<path id="Vector_7" d="M67.3902 44.0456C69.9982 44.0456 72.1124 41.7562 72.1124 38.932C72.1124 36.1078 69.9982 33.8184 67.3902 33.8184C64.7822 33.8184 62.668 36.1078 62.668 38.932C62.668 41.7562 64.7822 44.0456 67.3902 44.0456Z" stroke="#024442" stroke-opacity="0.1" stroke-width="5" stroke-linecap="round" stroke-linejoin="round"/>
<path id="Vector_8" d="M89.4253 67.9089C92.0334 67.9089 94.1476 65.6195 94.1476 62.7953C94.1476 59.9711 92.0334 57.6816 89.4253 57.6816C86.8173 57.6816 84.7031 59.9711 84.7031 62.7953C84.7031 65.6195 86.8173 67.9089 89.4253 67.9089Z" stroke="#024442" stroke-opacity="0.1" stroke-width="5" stroke-linecap="round" stroke-linejoin="round"/>
<path id="Vector_9" d="M125.628 20.6364C129.106 20.6364 131.925 17.5838 131.925 13.8182C131.925 10.0526 129.106 7 125.628 7C122.151 7 119.332 10.0526 119.332 13.8182C119.332 17.5838 122.151 20.6364 125.628 20.6364Z" stroke="#024442" stroke-opacity="0.1" stroke-width="5" stroke-linecap="round" stroke-linejoin="round"/>
<path id="Vector_10" d="M82.3405 153.366L97.8177 139.958C99.0355 138.95 99.8872 137.51 100.224 135.891C100.56 134.272 100.36 132.576 99.6578 131.101C99.2132 130.233 98.5991 129.48 97.8582 128.896C97.1173 128.311 96.2676 127.909 95.3683 127.717C94.469 127.525 93.5419 127.548 92.6515 127.783C91.7612 128.019 90.9291 128.463 90.2134 129.083L84.7041 133.856V107.134C84.7041 105.325 84.0408 103.591 82.86 102.312C81.6792 101.034 80.0777 100.315 78.4078 100.315C76.7379 100.315 75.1365 101.034 73.9557 102.312C72.7749 103.591 72.1115 105.325 72.1115 107.134V133.857L66.929 129.367C65.5841 128.178 63.8628 127.605 62.1329 127.771C60.403 127.937 58.8018 128.829 57.6713 130.257C56.6687 131.672 56.2184 133.457 56.417 135.228C56.6156 136.999 57.4472 138.615 58.7335 139.73L74.4742 153.366C75.5906 154.333 76.9777 154.86 78.4074 154.86C79.837 154.86 81.2241 154.333 82.3405 153.366Z" stroke="#024442" stroke-opacity="0.1" stroke-width="5" stroke-linecap="round" stroke-linejoin="round"/>
<path id="Vector_11" d="M146.254 27.1855L155.698 37.4128" stroke="#024442" stroke-opacity="0.1" stroke-width="5" stroke-linecap="round" stroke-linejoin="round"/>
<path id="Vector_12" d="M155.698 27.1855L146.254 37.4128" stroke="#024442" stroke-opacity="0.1" stroke-width="5" stroke-linecap="round" stroke-linejoin="round"/>
</g>
</g>
</svg>
