<svg width="180" height="180" viewBox="0 0 180 180" fill="none" xmlns="http://www.w3.org/2000/svg">
<g id="Frame 4" clip-path="url(#clip0_176_1018)">
<path id="Vector" d="M43.1882 0C39.2096 0 35.9902 3.22031 35.9902 7.2C35.9902 11.1375 39.1534 14.3438 43.0757 14.4L58.7089 43.0875C58.0482 44.1703 57.5843 45.4359 57.5843 46.8C57.5843 48.7828 58.4137 50.5547 59.7212 51.8625L42.9633 82.8C40.3905 82.8844 38.2114 84.3187 37.0024 86.4H13.3838C12.1326 84.2484 9.85512 82.8 7.19803 82.8C3.21943 82.8 0 86.0203 0 90C0 93.9797 3.21943 97.2 7.19803 97.2C9.85512 97.2 12.1326 95.7516 13.3838 93.6H37.0024C38.2114 95.6812 40.3905 97.1156 42.9633 97.2L59.7212 128.137C58.4137 129.445 57.5843 131.217 57.5843 133.2C57.5843 134.564 58.0482 135.83 58.7089 136.912L43.0757 165.6C39.1534 165.656 35.9902 168.863 35.9902 172.8C35.9902 176.78 39.2096 180 43.1882 180C47.1668 180 50.3862 176.78 50.3862 172.8C50.3862 171.436 49.9223 170.17 49.2615 169.087L65.0072 140.4C67.58 140.316 69.7591 138.881 70.9681 136.8H108.983C110.234 138.952 112.511 140.4 115.169 140.4L126.415 160.2C127.414 161.944 129.621 162.548 131.364 161.55C133.107 160.552 133.712 158.344 132.714 156.6L121.354 136.8C121.973 135.745 122.367 134.508 122.367 133.2C122.367 131.217 121.537 129.445 120.23 128.137L136.988 97.2C139.56 97.1156 141.739 95.6812 142.948 93.6H166.567C167.818 95.7516 170.096 97.2 172.753 97.2C176.731 97.2 179.951 93.9797 179.951 90C179.951 86.0203 176.731 82.8 172.753 82.8C170.096 82.8 167.818 84.2484 166.567 86.4H142.948C141.725 84.2766 139.49 82.8422 136.875 82.8L120.23 51.8625C121.537 50.5547 122.367 48.7828 122.367 46.8C122.367 45.4359 121.903 44.1703 121.242 43.0875L136.875 14.4C139.49 14.3578 141.725 12.9234 142.948 10.8H176.352C177.645 10.8141 178.854 10.1391 179.515 9.01406C180.162 7.88906 180.162 6.51094 179.515 5.38594C178.854 4.26094 177.645 3.58594 176.352 3.6H142.948C141.697 1.44844 139.42 0 136.763 0C132.784 0 129.565 3.22031 129.565 7.2C129.565 8.56406 130.029 9.82969 130.689 10.9125L114.944 39.6C112.371 39.6844 110.192 41.1187 108.983 43.2H70.9681C69.745 41.0766 67.5097 39.6422 64.8948 39.6L49.2615 10.9125C49.9223 9.82969 50.3862 8.56406 50.3862 7.2C50.3862 3.22031 47.1668 0 43.1882 0ZM70.9681 50.4H108.983C109.882 51.9469 111.288 53.1281 113.032 53.6625L130.689 86.175C130 87.2859 129.565 88.5938 129.565 90C129.565 91.4062 130 92.7141 130.689 93.825L113.032 126.337C111.288 126.872 109.882 128.053 108.983 129.6H70.9681C70.0683 128.053 68.6625 126.872 66.9192 126.337L49.2615 93.825C49.9504 92.7141 50.3862 91.4062 50.3862 90C50.3862 88.5938 49.9504 87.2859 49.2615 86.175L66.9192 53.6625C68.6625 53.1281 70.0683 51.9469 70.9681 50.4Z" fill="#024442" fill-opacity="0.1"/>
</g>
<defs>
<clipPath id="clip0_176_1018">
<rect width="180" height="180" fill="white"/>
</clipPath>
</defs>
</svg>
