<svg width="20" height="25" viewBox="0 0 20 25" fill="none" xmlns="http://www.w3.org/2000/svg">
<path id="Vector" fill-rule="evenodd" clip-rule="evenodd" d="M2.22222 9.65909C2.22222 5.78831 5.56659 2.27273 10 2.27273C14.4334 2.27273 17.7778 5.78831 17.7778 9.65909C17.7778 12.0965 16.3197 14.8189 14.4007 17.3422C12.8841 19.3364 11.197 21.0601 10 22.2664C8.803 21.0601 7.11586 19.3364 5.59928 17.3422C3.68032 14.8189 2.22222 12.0965 2.22222 9.65909ZM10 0C4.43341 0 0 4.43897 0 9.65909C0 12.9035 1.87523 16.147 3.84517 18.7374C5.54986 20.979 7.466 22.9061 8.66367 24.1106C8.87011 24.3183 9.05533 24.5045 9.21433 24.6672C9.42267 24.8802 9.70533 25 10 25C10.2947 25 10.5773 24.8802 10.7857 24.6672C10.9447 24.5045 11.1299 24.3183 11.3363 24.1107C12.5339 22.9061 14.4501 20.979 16.1549 18.7374C18.1248 16.147 20 12.9035 20 9.65909C20 4.43897 15.5666 0 10 0ZM10 13.0682C11.5341 13.0682 12.7778 11.7963 12.7778 10.2273C12.7778 8.65828 11.5341 7.38636 10 7.38636C8.46589 7.38636 7.22222 8.65828 7.22222 10.2273C7.22222 11.7963 8.46589 13.0682 10 13.0682Z" fill="white"/>
</svg>
