<svg width="208" height="28" viewBox="0 0 208 28" fill="none" xmlns="http://www.w3.org/2000/svg">
<path fill-rule="evenodd" clip-rule="evenodd" d="M94.7393 0L94 3.63409H203.781L203.303 6H206.783L208 0H94.7393Z" fill="black"/>
<path fill-rule="evenodd" clip-rule="evenodd" d="M113.261 28L114 24.3686L4.21937 24.3618L4.69461 22H1.21379L0 28H113.261Z" fill="black"/>
<path fill-rule="evenodd" clip-rule="evenodd" d="M197.864 9.66545L195.322 22H190.822L193.364 9.66545H190L190.759 6H202L201.247 9.66545H197.864Z" fill="black"/>
<path fill-rule="evenodd" clip-rule="evenodd" d="M183.989 16.4529L188.063 17.1987C187.587 18.8571 186.68 20.3376 185.448 21.4692C184.204 22.5701 182.608 23.112 180.997 22.9807C179.253 22.9874 177.6 22.1442 176.509 20.6903C175.403 19.1402 174.874 17.207 175.025 15.2648C175.087 12.8444 175.915 10.5176 177.375 8.66443C178.807 6.81524 180.995 5.82955 183.235 6.02427C184.843 6.00096 186.385 6.70535 187.479 7.9631C188.574 9.22086 189.118 10.9144 188.978 12.6247L184.651 12.7699C184.713 11.9962 184.594 11.2182 184.305 10.5059C184.029 9.98644 183.503 9.67734 182.945 9.70729C181.82 9.65449 181.016 10.5191 180.534 12.288C180.13 13.6501 179.869 15.0558 179.755 16.4793C179.693 18.1492 180.262 19.0138 181.473 19.0666C182.02 19.1149 182.559 18.9022 182.945 18.4858C183.426 17.8907 183.778 17.1899 183.977 16.4331" fill="black"/>
<path fill-rule="evenodd" clip-rule="evenodd" d="M165.636 18.7703L169.877 18.738L170.104 21.9742H175L173.052 6H168.364L160 22H163.974L165.636 18.7703ZM169.357 11.6326L169.623 15.4114L167.409 15.3855L169.357 11.6326Z" fill="black"/>
<path fill-rule="evenodd" clip-rule="evenodd" d="M145 22L153.352 6H158.029L160 22H155.095L154.308 11.6699L148.922 22H145Z" fill="black"/>
<path fill-rule="evenodd" clip-rule="evenodd" d="M131 22L134.324 6H147L143.676 22H139.241L141.868 9.35275H138.061L135.435 22H131Z" fill="black"/>
<path fill-rule="evenodd" clip-rule="evenodd" d="M120.764 22L121.997 16.1339L125.387 16.1274C126.936 16.2267 128.452 15.6493 129.548 14.5428C130.51 13.5067 131.03 12.1323 130.999 10.714C131.004 9.95698 130.823 9.21046 130.472 8.54087C130.139 7.88969 129.646 7.33526 129.04 6.93043C128.517 6.55642 127.922 6.29648 127.294 6.16725C126.403 6.03558 125.503 5.98149 124.604 6.00556H119.364L116 22H120.764ZM123.962 12.706H122.722L123.397 9.49161H124.366C125.779 9.49161 126.478 9.99609 126.478 11.0115C126.478 12.1369 125.644 12.706 123.962 12.706Z" fill="black"/>
<path fill-rule="evenodd" clip-rule="evenodd" d="M114.658 18.3301L113.875 22H102L105.419 6H117L116.25 9.50162H109.353L108.812 12.0194H114.899L114.155 15.4951H108.074L107.468 18.3301H114.658Z" fill="black"/>
<path fill-rule="evenodd" clip-rule="evenodd" d="M85.2654 15.5469H81.0742L79.6881 22H75L78.4262 6H83.1142L81.8523 11.8706H86.0435L87.3054 6H92L88.5738 22H83.8792L85.2654 15.5469Z" fill="black"/>
<path fill-rule="evenodd" clip-rule="evenodd" d="M76 6L72.5808 22H68L71.4127 6H76Z" fill="black"/>
<path fill-rule="evenodd" clip-rule="evenodd" d="M48.2653 6H44.2977L43.8835 7.97995C41.3507 8.01928 39.4241 8.74264 38.1037 10.15C36.8217 11.4934 36.0788 13.2718 36.0196 15.1392C35.898 16.566 36.3456 17.9827 37.2623 19.0729C38.2856 20.1657 39.6653 20.8458 41.1457 20.9873L40.725 23H44.6926L45.1068 21.0332C47.6957 20.9763 49.6374 20.2421 50.9319 18.8303C52.1793 17.5117 52.9088 15.7773 52.9836 13.9526C53.0915 12.535 52.6634 11.1288 51.7863 10.0189C50.7721 8.86773 49.3621 8.15244 47.8446 8.01928L48.2653 6ZM41.7929 17.8338L43.2233 11.0089C41.4068 11.5596 40.4402 12.9407 40.3237 15.1523C40.2165 16.2684 40.8012 17.3355 41.7929 17.8338ZM45.6764 18.0239C47.5274 17.4295 48.4983 16.0702 48.5889 13.946C48.7245 12.8037 48.1291 11.7002 47.1067 11.199L45.6764 18.0239Z" fill="black"/>
<path fill-rule="evenodd" clip-rule="evenodd" d="M99.864 9.66545L97.3285 22H92.8285L95.364 9.66545H92L92.7594 6H104L103.247 9.66545H99.864Z" fill="black"/>
<path fill-rule="evenodd" clip-rule="evenodd" d="M21 22L29.3557 6H34.0347L36 22H31.0998L30.3059 11.6699L24.9241 22H21Z" fill="black"/>
<path fill-rule="evenodd" clip-rule="evenodd" d="M57.6364 18.7703L61.8766 18.738L62.1234 21.9742H67L65.0519 6H60.3636L52 22H55.974L57.6364 18.7703ZM61.3506 11.6326L61.6234 15.4114L59.4026 15.3855L61.3506 11.6326Z" fill="black"/>
<path fill-rule="evenodd" clip-rule="evenodd" d="M11.6364 18.7703L15.8766 18.738L16.1234 21.9742H21L19.0519 6H14.3636L6 22H9.97403L11.6364 18.7703ZM15.3312 11.6326L15.6234 15.4114L13.3831 15.3855L15.3312 11.6326Z" fill="black"/>
</svg>
