<svg width="240" height="32" viewBox="0 0 240 32" fill="none" xmlns="http://www.w3.org/2000/svg">
<mask id="mask0_351_9" style="mask-type:luminance" maskUnits="userSpaceOnUse" x="0" y="0" width="240" height="32">
<path d="M240 0H0V31.3568H240V0Z" fill="white"/>
</mask>
<g mask="url(#mask0_351_9)">
<path d="M232.773 30.9331H240L228.941 6.06217C228.689 5.52139 228.428 5.00388 228.158 4.50989C228.068 4.34394 227.972 4.18535 227.875 4.03049C227.603 3.58938 227.302 3.16682 226.971 2.76575L226.862 2.63301C226.158 1.78174 225.262 1.10103 224.243 0.644263C223.225 0.187491 222.112 -0.032935 220.992 0.000279036C216.728 0.000279036 214.566 2.67726 213.054 6.06217L205.177 23.7613C204.89 24.4655 204.527 24.8895 203.877 24.8895C203.227 24.8895 202.792 24.5208 202.577 23.7613L197.444 6.43098C197.005 4.77763 196.117 3.27049 194.874 2.06885C194.418 1.64023 193.91 1.26862 193.362 0.962655L193.289 0.918418C192.147 0.309373 190.865 -0.00536535 189.563 0.00396932C186.022 0.00396932 183.349 2.11679 181.977 6.41614L176.685 23.186C176.624 23.4993 176.454 23.7826 176.205 23.9881C175.955 24.1936 175.64 24.3088 175.313 24.3144C175.093 24.3159 174.876 24.2639 174.681 24.1631C174.493 24.0611 174.328 23.9213 174.198 23.7529C174.068 23.5846 173.975 23.3915 173.926 23.186L168.654 6.41614C168.191 4.78089 167.337 3.27586 166.162 2.0246C166.144 2.00248 166.121 1.98773 166.102 1.96929C165.905 1.77806 165.696 1.59831 165.478 1.43094C164.219 0.472995 162.66 -0.0311141 161.063 0.00396932C157.45 0.00396932 154.486 2.19053 153.186 6.41614L145.684 30.9331H153.054L159.703 7.96481C159.764 7.65148 159.933 7.36818 160.182 7.16268C160.433 6.95717 160.748 6.84199 161.075 6.83656C161.294 6.83536 161.512 6.88734 161.706 6.98768C161.895 7.08959 162.06 7.22925 162.191 7.39761C162.321 7.56597 162.414 7.7593 162.462 7.96481L167.754 24.9449C169.125 29.2442 171.945 31.3571 175.344 31.3571C178.745 31.3571 181.557 29.2442 182.929 24.9449L188.222 7.98326C188.282 7.66993 188.452 7.38663 188.701 7.18113C188.951 6.97562 189.266 6.86044 189.593 6.85502C189.813 6.85333 190.031 6.90531 190.225 7.00613C190.413 7.10877 190.578 7.24867 190.708 7.41691C190.839 7.58515 190.93 7.77811 190.98 7.98326L195.675 24.3291C196.397 26.7885 197.372 28.5473 198.698 29.6941L198.819 29.7862C200.15 30.8703 201.844 31.3755 203.975 31.3755C207.66 31.3755 210.046 29.1926 212.143 24.3991L213.119 22.1462H228.994L232.773 30.9331ZM215.643 16.206L219.185 8.03488C219.763 6.76649 220.269 6.48259 220.992 6.48259C221.212 6.47078 221.433 6.50973 221.636 6.5962C221.838 6.68255 222.018 6.81413 222.159 6.98032C222.205 7.03194 222.254 7.09092 222.299 7.15363C222.386 7.2717 222.466 7.39484 222.538 7.52231C222.572 7.58141 222.605 7.64038 222.636 7.7031C222.666 7.76569 222.745 7.91319 222.798 8.03488L226.359 16.206H215.643ZM110.532 0.40957L98.5951 15.6639L110.532 30.9331H102.488L94.5508 20.9294C93.1032 19.0857 92.0902 18.6728 89.4897 18.6728H85.8385V30.9331H79.0726V0.40957H85.8271V12.6699H89.4784C92.0788 12.6699 93.0919 12.2459 94.5395 10.4132L102.477 0.40957H110.532ZM21.2083 0.254703C20.4851 0.0712779 19.7405 -0.0192224 18.9933 -0.0144706C14.658 -0.0144706 12.4883 2.73256 11.0558 6.04746L0 30.9183H7.22691L11.0634 22.113H26.9384L30.7786 30.9331H38.0055L26.946 6.06217C25.7212 3.31147 24.1073 1.02903 21.2196 0.269453L21.2083 0.254703ZM13.6261 16.1913L17.1865 8.02016C17.7649 6.75166 18.2714 6.46776 18.9933 6.46776C19.1631 6.46559 19.3323 6.4867 19.4961 6.53048C19.9722 6.66688 20.3654 7.06511 20.8 8.00545L24.3606 16.1764L13.6261 16.1913ZM73.4106 9.77904C73.4106 3.87926 69.5099 0.40957 62.0714 0.40957H42.167V30.9183H48.9971V19.8564H54.5231C57.271 19.8564 58.5712 20.0666 59.8714 22.0429L65.87 30.9183H73.9284L65.6847 18.964C70.5493 18.0423 73.4219 15.0666 73.4219 9.79375L73.4106 9.77904ZM48.9971 14.0231V6.27974H61.6782C64.6415 6.27974 66.5919 7.61819 66.5919 10.1551C66.5919 12.692 64.6415 14.0304 61.6782 14.0304L48.9971 14.0231ZM142.021 0.40957V6.39769H127.495C121.176 6.39769 118.462 8.61015 118.258 12.5998H142.021V18.588H118.25C118.397 22.6661 121.1 24.9302 127.495 24.9302H142.021V30.9183H126.683C116.421 30.9183 110.857 26.2686 110.857 15.6307C110.857 4.99291 116.421 0.40957 126.683 0.40957H142.021Z" fill="url(#paint0_linear_351_9)"/>
</g>
<defs>
<linearGradient id="paint0_linear_351_9" x1="0" y1="15.6787" x2="240" y2="15.6787" gradientUnits="userSpaceOnUse">
<stop offset="0.35" stop-color="#28285F"/>
<stop offset="0.7" stop-color="#55BE9B"/>
</linearGradient>
</defs>
</svg>
