<svg width="112" height="42" viewBox="0 0 112 42" fill="none" xmlns="http://www.w3.org/2000/svg">
<path d="M28.589 0.296875H38.8814V40.3679H28.589V34.9587H10.1766L20.5076 25.1562H28.589V14.5119L0 41.2969V27.1593L28.589 0.296875Z" fill="#EF3E33"/>
<path d="M28.589 0.296875H38.8814V40.3679H28.589V34.9587H10.1766L20.5076 25.1562H28.589V14.5119L0 41.2969V27.1593L28.589 0.296875Z" fill="url(#paint0_linear_688_17)"/>
<path d="M50.1393 11.2509H41.691V0.751678H78.5931L67.4993 11.2509H61.2234V40.8227H50.1393V11.2509Z" fill="#EF3E33"/>
<path d="M50.1393 11.2509H41.691V0.751678H78.5931L67.4993 11.2509H61.2234V40.8227H50.1393V11.2509Z" fill="url(#paint1_linear_688_17)"/>
<path d="M101.785 10.4283H81.171V31.1848H92.3324C92.8157 31.2009 93.2928 31.0729 93.7035 30.8171C94.0782 30.5829 94.3794 30.2475 94.5724 29.8494C94.7831 29.395 94.8887 28.8989 94.8814 28.3979C94.8985 27.6919 94.6582 27.0038 94.2055 26.4626C93.9683 26.2047 93.6778 26.0018 93.3543 25.8681C93.0308 25.7344 92.682 25.6731 92.3324 25.6884H83.3917V15.9827H94.3503C95.7944 15.9676 97.2244 16.2681 98.5407 16.8633C99.8495 17.4385 101.021 18.2862 101.978 19.3502C102.986 20.4763 103.761 21.792 104.257 23.2209C104.836 24.8439 105.121 26.558 105.097 28.2818C105.092 29.8928 104.808 31.4908 104.257 33.004C103.721 34.4587 102.941 35.8104 101.949 37.0004C101.011 38.1516 99.8519 39.1025 98.5407 39.797C97.2662 40.4697 95.8487 40.8248 94.4083 40.8324H70.9462V10.4283L81.171 0.751678H112L101.785 10.4283Z" fill="#EF3E33"/>
<path d="M101.785 10.4283H81.171V31.1848H92.3324C92.8157 31.2009 93.2928 31.0729 93.7035 30.8171C94.0782 30.5829 94.3794 30.2475 94.5724 29.8494C94.7831 29.395 94.8887 28.8989 94.8814 28.3979C94.8985 27.6919 94.6582 27.0038 94.2055 26.4626C93.9683 26.2047 93.6778 26.0018 93.3543 25.8681C93.0308 25.7344 92.682 25.6731 92.3324 25.6884H83.3917V15.9827H94.3503C95.7944 15.9676 97.2244 16.2681 98.5407 16.8633C99.8495 17.4385 101.021 18.2862 101.978 19.3502C102.986 20.4763 103.761 21.792 104.257 23.2209C104.836 24.8439 105.121 26.558 105.097 28.2818C105.092 29.8928 104.808 31.4908 104.257 33.004C103.721 34.4587 102.941 35.8104 101.949 37.0004C101.011 38.1516 99.8519 39.1025 98.5407 39.797C97.2662 40.4697 95.8487 40.8248 94.4083 40.8324H70.9462V10.4283L81.171 0.751678H112L101.785 10.4283Z" fill="url(#paint2_linear_688_17)"/>
<defs>
<linearGradient id="paint0_linear_688_17" x1="161.311" y1="0.296875" x2="161.311" y2="41.2969" gradientUnits="userSpaceOnUse">
<stop stop-color="#EF3E33"/>
<stop offset="1" stop-color="#A5251D"/>
</linearGradient>
<linearGradient id="paint1_linear_688_17" x1="43.4286" y1="-0.168472" x2="43.4286" y2="41.7821" gradientUnits="userSpaceOnUse">
<stop stop-color="#EF3E33"/>
<stop offset="1" stop-color="#A5251D"/>
</linearGradient>
<linearGradient id="paint2_linear_688_17" x1="56.0001" y1="0.296174" x2="56.0001" y2="41.2962" gradientUnits="userSpaceOnUse">
<stop stop-color="#EF3E33"/>
<stop offset="1" stop-color="#A5251D"/>
</linearGradient>
</defs>
</svg>
