<svg width="180" height="180" viewBox="0 0 180 180" fill="none" xmlns="http://www.w3.org/2000/svg">
<g id="Frame 4" clip-path="url(#clip0_176_1034)">
<path id="Vector" d="M32.4113 0.0197193C20.8143 0.0197193 12.7176 3.97085 7.67113 8.00634C2.6247 12.0418 0.361538 16.4429 0.361538 16.4429C-0.509991 18.2427 0.249083 20.4081 2.04837 21.2799C3.84765 22.1517 6.01242 21.3924 6.88394 19.5926C6.88394 19.5926 8.21935 16.7944 12.1693 13.6307C15.7398 10.7764 21.6296 8.09071 30.0497 7.55639L90.6631 161.327C91.0145 162.227 91.7174 162.944 92.6029 163.338C93.4885 163.717 94.4866 163.717 95.3862 163.352L175.904 131.855C177.774 131.138 178.701 129.057 177.985 127.187C177.268 125.317 175.187 124.389 173.318 125.106L96.0609 155.365L35.7849 2.26947C35.2367 0.891501 33.8873 0.00565834 32.4113 0.0197193ZM133.059 0.0197193C132.834 0.0759631 132.595 0.146268 132.384 0.244695L58.8383 29.604C57.0249 30.3351 56.1253 32.388 56.8141 34.216L67.6098 61.3255L77.9556 87.0852C78.0119 87.3102 78.0822 87.5492 78.1806 87.7601C78.2649 87.9991 78.3774 88.2241 78.5179 88.435L89.2012 115.432L99.4346 141.192C99.786 142.092 100.489 142.809 101.374 143.202C102.26 143.582 103.258 143.582 104.158 143.217L177.703 113.97C178.603 113.618 179.32 112.915 179.714 112.029C180.093 111.143 180.093 110.145 179.728 109.245L158.474 55.9261C158.431 55.8839 158.403 55.8558 158.361 55.8136C158.277 55.5746 158.164 55.3496 158.024 55.1387L137.107 2.26947C136.517 0.779013 134.999 -0.149012 133.396 0.0197193C133.284 0.0197193 133.171 0.0197193 133.059 0.0197193ZM131.709 8.34381L150.377 55.1387L141.38 58.7383L83.466 81.6858L74.3571 58.6258L64.9108 34.8909L131.709 8.34381ZM115.403 22.6297C115.249 22.6579 115.094 22.7 114.953 22.7422C114.757 22.7985 114.574 22.8828 114.391 22.9672L87.6268 33.6535C86.2492 33.9629 85.1809 35.0596 84.8998 36.4517C84.6186 37.8296 85.1809 39.2498 86.3195 40.0794C87.4581 40.909 88.9903 40.9934 90.2133 40.2903L116.978 29.7165C118.889 29.2384 120.07 27.3261 119.634 25.3997C119.213 23.4875 117.329 22.2501 115.403 22.6297ZM153.076 61.7755L171.631 108.683L104.832 135.23L95.836 112.732L86.1649 88.435L90.2133 86.8602L153.076 61.7755ZM136.995 76.0614C136.84 76.0895 136.685 76.1317 136.545 76.1739C136.236 76.2442 135.926 76.3567 135.645 76.5113L108.881 87.0852C107.011 87.8304 106.112 89.9396 106.857 91.8097C107.602 93.6798 109.71 94.5797 111.58 93.8344L138.344 83.1481C140.298 82.7685 141.591 80.8843 141.212 78.9298C140.832 76.9753 138.949 75.6817 136.995 76.0614ZM68.3969 144.004C58.5009 144.004 50.4041 152.103 50.4041 162.002C50.4041 171.901 58.5009 180 68.3969 180C78.293 180 86.3898 171.901 86.3898 162.002C86.3898 152.103 78.293 144.004 68.3969 144.004ZM68.3969 151.203C74.3993 151.203 79.1926 155.998 79.1926 162.002C79.1926 168.006 74.3993 172.801 68.3969 172.801C62.3947 172.801 57.6012 168.006 57.6012 162.002C57.6012 155.998 62.3947 151.203 68.3969 151.203Z" fill="#024442" fill-opacity="0.1"/>
</g>
<defs>
<clipPath id="clip0_176_1034">
<rect width="180" height="180" fill="white"/>
</clipPath>
</defs>
</svg>
