<svg width="175" height="175" viewBox="0 0 175 175" fill="none" xmlns="http://www.w3.org/2000/svg">
<g id="eco3-svgrepo-com 1" clip-path="url(#clip0_172_32)">
<g id="Shopicon">
<path id="Vector" d="M62.2482 123.335L70.4695 130.98H47.9529C41.0768 130.98 35.9617 128.942 33.9237 125.391C31.882 121.836 32.6987 116.393 36.1623 110.454L47.5664 90.9052L34.9701 83.5552L23.5623 103.104C17.306 113.83 16.493 124.323 21.2727 132.65C26.056 140.973 35.5279 145.56 47.9492 145.56H70.4695L62.2445 153.205L72.1758 163.887L99.7274 138.275L72.1758 112.656L62.2482 123.335Z" fill="#06413F" fill-opacity="0.1"/>
<path id="Vector_2" d="M128.381 61.68L112.722 34.8394C106.477 24.128 97.7156 18.229 88.0542 18.229C78.3964 18.229 69.6354 24.128 63.3865 34.8394L56.0073 47.4868L53.5464 36.5311L39.3203 39.7285L47.5635 76.4274L83.5734 65.541L79.3552 51.5847L68.6109 54.8295L75.9865 42.1858C79.4573 36.2321 83.8578 32.8123 88.0542 32.8123C92.2505 32.8123 96.651 36.2321 100.129 42.1858L115.788 69.0264L128.381 61.68Z" fill="#06413F" fill-opacity="0.1"/>
<path id="Vector_3" d="M120.14 112.853L134.366 116.05L136.827 105.102L139.948 110.454C143.412 116.393 144.228 121.836 142.187 125.391C140.145 128.945 135.034 130.98 128.158 130.98H113.574V145.563H128.158C140.579 145.563 150.051 140.977 154.83 132.653C159.614 124.33 158.801 113.833 152.545 103.107L149.42 97.7481L160.172 101L164.393 87.0439L128.387 76.1538L120.14 112.853Z" fill="#06413F" fill-opacity="0.1"/>
</g>
</g>
<defs>
<clipPath id="clip0_172_32">
<rect width="175" height="175" fill="white"/>
</clipPath>
</defs>
</svg>
