<svg width="200" height="200" viewBox="0 0 200 200" fill="none" xmlns="http://www.w3.org/2000/svg">
<g id="factory-pollution-svgrepo-com 1">
<g id="Group">
<g id="Vector">
<path d="M60.3023 16.4043H14.7793V189.751H60.3023V16.4043Z" fill="#3FEDE8"/>
<path d="M157.509 33.4496C156.736 33.4496 155.981 33.5258 155.249 33.6672C155.342 32.8664 155.395 32.0531 155.395 31.2277C155.395 19.6406 146.001 10.248 134.414 10.248C122.827 10.248 113.434 19.6414 113.434 31.2277C113.434 32.0535 113.487 32.8664 113.579 33.6672C112.847 33.5258 112.092 33.4496 111.319 33.4496C104.759 33.4496 99.4414 38.7672 99.4414 45.3273C99.4414 51.8875 104.759 57.2051 111.319 57.2051H157.508C164.068 57.2051 169.386 51.8875 169.386 45.3273C169.386 38.7672 164.069 33.4496 157.509 33.4496Z" fill="#3FEDE8"/>
<path d="M193.96 118.12C197.295 118.12 200 115.417 200 112.081V82.6064C200 80.5353 198.939 78.6092 197.189 77.5021C195.439 76.3951 193.245 76.2615 191.373 77.1494L133.172 104.745V82.6064C133.172 80.5353 132.111 78.6092 130.361 77.5021C128.612 76.3951 126.416 76.2615 124.545 77.1494L66.343 104.745V22.442H69.0422C72.3781 22.442 75.082 19.7381 75.082 16.4021C75.082 13.0662 72.3781 10.3623 69.0422 10.3623H6.03984C2.70391 10.3619 0 13.0662 0 16.4021C0 19.7381 2.70391 22.442 6.03984 22.442H8.73906V189.75C8.73906 193.086 11.443 195.79 14.7789 195.79L193.96 195.792C197.295 195.792 200 193.088 200 189.752V146.191C200 142.855 197.295 140.151 193.96 140.151C190.625 140.151 187.92 142.855 187.92 146.191V183.712H133.171V151.7H167.179C170.514 151.7 173.219 148.996 173.219 145.66C173.219 142.324 170.514 139.62 167.179 139.62H133.171V118.113L187.92 92.1541V112.08C187.92 115.417 190.624 118.12 193.96 118.12ZM54.2621 183.711H20.8191V22.442H54.2629L54.2621 183.711ZM121.091 183.713H66.3422V151.701H121.091L121.091 183.713ZM121.091 139.621H66.3422V118.113L121.091 92.1545L121.091 139.621Z" fill="#056461"/>
<path d="M111.32 63.2451H157.51C167.389 63.2451 175.427 55.2072 175.427 45.3275C175.427 36.7189 169.324 29.5088 161.218 27.7959C159.527 14.5111 148.152 4.20801 134.415 4.20801C120.678 4.20801 109.303 14.5111 107.612 27.7959C99.5059 29.5084 93.4031 36.7186 93.4031 45.3275C93.4023 55.2068 101.439 63.2451 111.32 63.2451ZM111.32 39.49C111.688 39.49 112.064 39.5268 112.439 39.5982C114.329 39.9635 116.277 39.4045 117.688 38.0955C119.098 36.7865 119.801 34.8846 119.58 32.9736C119.509 32.3588 119.474 31.7881 119.474 31.2279C119.474 22.99 126.177 16.2881 134.414 16.2881C142.653 16.2881 149.354 22.99 149.354 31.2279C149.354 31.7873 149.319 32.3588 149.248 32.9736C149.027 34.8854 149.73 36.7873 151.141 38.0955C152.552 39.4045 154.501 39.9631 156.39 39.5982C156.764 39.5264 157.139 39.49 157.509 39.49C160.727 39.49 163.346 42.1088 163.346 45.3275C163.346 48.5463 160.727 51.165 157.509 51.165H111.319C108.1 51.165 105.482 48.5467 105.482 45.3275C105.482 42.1084 108.101 39.49 111.32 39.49Z" fill="#056461"/>
</g>
</g>
</g>
</svg>
