<svg width="800" height="567" viewBox="0 0 800 567" fill="none" xmlns="http://www.w3.org/2000/svg">
<mask id="mask0_176_740" style="mask-type:luminance" maskUnits="userSpaceOnUse" x="0" y="0" width="800" height="685">
<path d="M0 -2.38419e-06H800V685H0V-2.38419e-06Z" fill="white"/>
</mask>
<g mask="url(#mask0_176_740)">
<path d="M171.941 499.819C171.941 499.819 84.5478 437.586 59.3894 331.653C34.231 225.723 72.631 97.2818 145.458 32.3986C218.285 -32.483 349.375 11.213 407.639 65.5026L465.9 119.792C465.9 119.792 521.513 150.247 594.341 147.599C667.17 144.951 732.05 244.261 749.265 322.386C766.479 400.509 725.431 503.791 725.431 503.791L171.941 499.819Z" fill="#C1FBF9"/>
<mask id="mask1_176_740" style="mask-type:luminance" maskUnits="userSpaceOnUse" x="53" y="3" width="700" height="515">
<path d="M53.043 3.75692H752.801V517.034H53.043V3.75692Z" fill="white"/>
</mask>
<g mask="url(#mask1_176_740)">
<path d="M132.216 515.708C132.216 515.708 71.3059 482.606 55.4163 405.806C39.5267 329.006 108.383 258.827 115.002 220.427C121.623 182.027 107.058 134.358 167.968 97.2812C228.879 60.206 337.458 73.446 378.506 64.1772C419.554 54.9084 467.223 -8.64996 549.32 5.91644C631.416 20.4812 710.864 64.1772 714.837 159.516C718.81 254.854 688.354 257.502 718.81 309.144C749.264 360.785 761.181 396.537 746.616 449.502C732.05 502.468 701.595 517.033 701.595 517.033L132.216 515.708Z" fill="#C1FBF9"/>
</g>
<mask id="mask2_176_740" style="mask-type:luminance" maskUnits="userSpaceOnUse" x="232" y="202" width="409" height="314">
<path d="M232.852 202.043H640.213V515.709H232.852V202.043Z" fill="white"/>
</mask>
<g mask="url(#mask2_176_740)">
<path d="M259.399 498.496C255.61 494.523 200.038 383.296 261.926 281.336C323.812 179.378 479.161 191.296 541.046 231.019C602.934 270.744 633.246 322.386 639.561 376.674C645.876 430.965 604.196 515.709 604.196 515.709L259.399 498.496Z" fill="#C1FBF9"/>
</g>
</g>
<mask id="mask3_176_740" style="mask-type:luminance" maskUnits="userSpaceOnUse" x="0" y="0" width="800" height="685">
<path d="M0 -2.38419e-06H800V685H0V-2.38419e-06Z" fill="white"/>
</mask>
<g mask="url(#mask3_176_740)">
<path d="M695.142 311.239H623.748C619.33 311.239 615.748 307.658 615.748 303.239V267.599C615.748 263.18 619.33 259.599 623.748 259.599H695.142C699.561 259.599 703.142 263.18 703.142 267.599V303.239C703.142 307.658 699.561 311.239 695.142 311.239Z" fill="#2EC7C2"/>
<path d="M659.444 331.433L670.758 304.619H648.131L659.444 331.433Z" fill="#2EC7C2"/>
<path d="M659.174 276.552H679.611V279.542L689.63 273.765L679.611 267.989V270.979H659.174V276.552Z" fill="#06413F"/>
<path d="M689.63 288.303H669.193V285.313L659.174 291.089L669.193 296.867V293.875H689.63V288.303Z" fill="white"/>
<path d="M646.629 293.56L645.656 293.915C645.656 293.915 642.624 290.453 641.05 286.681C639.475 282.912 639.421 278.307 639.421 278.307L640.131 278.009L635.81 267.667C635.04 268.269 634.306 269.043 633.712 270.046C631.266 274.179 631.509 280.521 633.97 286.718C636.429 292.913 639.059 298.44 643.859 301.915C646.691 303.966 649.119 304.326 651.002 304.027L646.629 293.56Z" fill="#06413F"/>
<path d="M649.733 292.343L648.389 292.831L652.813 303.419C653.312 303.256 653.761 303.055 654.15 302.842C655.293 302.216 655.793 300.842 655.312 299.632L653.001 293.81C652.489 292.517 651.04 291.866 649.733 292.343Z" fill="#06413F"/>
<path d="M639.19 265.853C638.646 266.049 638.054 266.314 637.459 266.666L641.872 277.229L643.357 276.609C644.646 276.069 645.27 274.602 644.761 273.301L642.441 267.346C641.939 266.052 640.496 265.383 639.19 265.853Z" fill="#06413F"/>
<path d="M238.755 480.619V361.448C238.755 361.448 237.43 329.336 254.313 320.067C271.195 310.798 342.368 315.765 342.368 315.765V480.619H238.755Z" fill="#149490"/>
<path d="M364.602 204.205C364.602 204.205 360.3 240.288 358.644 243.268L356.99 246.247L348.713 251.874C348.713 251.874 364.602 274.384 384.134 278.026C403.665 281.668 402.009 270.082 402.009 270.082L399.03 263.792L403.002 229.364C403.002 229.364 367.582 213.143 364.602 204.205Z" fill="#FF9E8C"/>
<path d="M338.451 254.854L351.362 249.226C351.362 249.226 359.637 262.799 378.837 270.743C398.037 278.687 398.368 274.054 399.362 270.743C400.354 267.433 399.03 263.791 399.03 263.791L400.451 252.201L408.128 254.759L434.782 470.356L366.258 473.668L338.451 254.854Z" fill="white"/>
<path d="M401.678 252.426C401.678 252.426 406.311 263.128 410.615 288.288C414.919 313.447 418.892 355.82 419.886 384.951C420.878 414.082 421.54 480.62 421.54 480.62H507.94C508.932 480.62 514.892 447.847 514.892 447.847C514.892 447.847 477.155 415.516 475.169 410.22C473.844 406.688 474.507 341.253 468.878 311.13C463.249 281.005 455.969 274.936 440.74 267.432C425.003 259.677 401.678 252.426 401.678 252.426Z" fill="#06413F"/>
<path d="M446.699 442.688C446.257 442.688 445.899 442.33 445.899 441.888C445.899 439.522 445.478 405.894 445.071 373.374C444.665 340.85 444.244 307.218 444.244 304.84C444.244 304.397 444.601 304.04 445.044 304.04C445.486 304.04 445.844 304.397 445.844 304.84C445.844 307.206 446.265 340.834 446.67 373.354C447.078 405.878 447.499 439.51 447.499 441.888C447.499 442.33 447.14 442.688 446.699 442.688Z" fill="#2F8784"/>
<path d="M274.561 434.605L273.898 480.62H374.534C374.534 480.62 378.836 441.557 377.182 437.916C375.527 434.274 274.561 434.605 274.561 434.605Z" fill="#06413F"/>
<mask id="mask4_176_740" style="mask-type:luminance" maskUnits="userSpaceOnUse" x="367" y="208" width="37" height="42">
<path d="M367.371 208.109H403.003V249.837H367.371V208.109Z" fill="white"/>
</mask>
<g mask="url(#mask4_176_740)">
<path d="M386.561 242.275C390.662 245.58 396.272 248.233 400.64 249.838L403.003 229.364C403.003 229.364 376.396 217.175 367.369 208.108C369.256 218.411 373.896 232.063 386.561 242.275Z" fill="#19817D"/>
</g>
<path d="M434.12 137.005C434.12 137.005 441.072 148.923 442.396 163.488C443.72 178.053 442.396 215.461 430.479 231.35C418.56 247.24 393.733 242.605 382.479 233.005C372.149 224.195 361.954 214.467 359.306 195.267C356.658 176.067 364.933 139.653 388.437 132.04C411.941 124.426 434.12 137.005 434.12 137.005Z" fill="#FF9E8C"/>
<path d="M463.982 459.808C463.982 459.808 462.816 459.808 461.038 459.76C460.622 459.744 460.158 459.76 459.678 459.744C457.966 459.696 455.886 459.648 453.79 459.584C453.326 459.568 452.846 459.552 452.382 459.536C450.302 459.488 448.526 459.744 446.862 459.648H446.816C446.462 459.632 445.95 459.68 445.534 459.696C445.326 459.712 445.134 459.728 445.006 459.712C444.046 459.536 443.854 459.312 442.816 458.848C441.47 458.24 423.278 454.176 408.478 454.272C393.694 454.336 380.43 455.344 378.27 453.536C376.094 451.696 374.782 433.12 387.406 431.904L402.926 437.792C402.926 437.792 438.366 433.584 451.358 443.168C464.382 452.752 463.982 459.808 463.982 459.808Z" fill="#FF9E8C"/>
<path d="M446.817 459.649C446.463 459.631 445.953 459.681 445.535 459.695C445.217 459.185 444.543 458.257 444.177 457.873C440.177 453.793 430.513 451.151 427.007 450.303C426.689 450.223 426.479 449.903 426.561 449.585C426.625 449.265 426.961 449.073 427.297 449.137C432.399 450.367 443.233 453.521 446.305 458.687C446.399 458.831 446.655 459.329 446.817 459.649Z" fill="#06413F"/>
<path d="M453.795 459.583C453.331 459.572 452.851 459.559 452.387 459.534C448.021 451.567 440.874 449.283 432.043 446.441L431.52 446.268C431.219 446.164 431.034 445.823 431.139 445.507C431.242 445.206 431.566 445.02 431.899 445.126L432.408 445.297C441.746 448.294 449.258 450.702 453.795 459.583Z" fill="#06413F"/>
<path d="M461.041 459.76C460.625 459.749 460.161 459.753 459.68 459.742C457.032 454.173 448.265 444.853 436.667 442.68C436.332 442.624 436.115 442.315 436.171 441.981C436.243 441.661 436.552 441.446 436.872 441.502C448.819 443.745 458.457 453.504 461.041 459.76Z" fill="#06413F"/>
<path d="M367.251 178.882C367.251 178.882 374.534 175.405 379.665 165.64C384.795 155.875 384.134 147.102 384.134 147.102C384.134 147.102 393.403 145.613 407.307 149.75C421.209 153.888 437.761 159.515 451.663 151.571C465.569 143.626 465.569 130.882 458.782 125.584C451.182 119.653 436.107 123.267 436.107 123.267C436.107 123.267 441.899 117.64 438.755 114.33C435.609 111.019 424.188 115.323 424.188 115.323C424.188 115.323 410.286 104.234 383.967 105.557C357.651 106.882 345.071 125.253 343.582 145.778C342.092 166.302 349.54 186.826 349.54 186.826L367.251 178.882Z" fill="#06413F"/>
<mask id="mask5_176_740" style="mask-type:luminance" maskUnits="userSpaceOnUse" x="413" y="183" width="15" height="30">
<path d="M413.838 183.454H427.534V212.645H413.838V183.454Z" fill="white"/>
</mask>
<g mask="url(#mask5_176_740)">
<path d="M420.643 183.856C419.152 187.533 419.189 191.802 418.813 195.704C418.521 198.739 417.963 202.278 420.744 204.328C422.073 205.307 428.357 207.947 425.125 210.086C423.893 210.902 421.827 210.68 420.425 210.614C419.459 210.57 418.483 210.528 417.518 210.456C416.48 210.379 415.464 210.066 414.424 210.061C413.814 210.058 413.625 210.869 414.121 211.179C415.793 212.226 418.243 212.547 420.192 212.622C422.141 212.699 423.462 212.61 425.216 211.739C426.296 211.203 427.342 210.446 427.512 209.163C427.705 207.72 426.622 206.426 425.536 205.619C424.283 204.691 422.747 204.259 421.483 203.355C419.731 202.099 419.877 199.987 420 198.029C420.294 193.323 421.377 188.698 421.798 184.013C421.862 183.296 420.872 183.296 420.643 183.856Z" fill="#19817D"/>
</g>
<path d="M434.174 194.864C433.679 197.654 431.651 199.629 429.639 199.272C427.63 198.917 426.401 196.365 426.894 193.576C427.388 190.785 429.417 188.811 431.428 189.166C433.438 189.523 434.668 192.073 434.174 194.864Z" fill="#06413F"/>
<path d="M408.844 192.653C408.396 195.664 406.276 197.841 404.107 197.52C401.937 197.197 400.542 194.494 400.99 191.485C401.438 188.473 403.56 186.294 405.729 186.617C407.897 186.941 409.292 189.643 408.844 192.653Z" fill="#06413F"/>
<path d="M428.277 183.362C429.824 183.622 431.384 183.357 432.945 183.466C433.32 183.493 433.691 183.547 434.065 183.584C434.331 183.608 433.569 183.504 433.939 183.565C434.019 183.579 434.099 183.592 434.177 183.605C434.374 183.64 434.569 183.68 434.761 183.728C435.094 183.808 435.416 183.933 435.749 184.006C436.049 184.072 436.385 184.142 436.691 184.128C436.861 184.106 437.03 184.083 437.2 184.061C437.094 184.078 436.985 184.098 436.88 184.118C436.878 184.155 437.459 184.061 437.512 184.05C438.4 183.842 438.949 182.814 438.701 181.958C438.629 181.71 438.518 181.486 438.363 181.283C438.297 181.195 438.23 181.11 438.16 181.026C438.222 181.096 438.285 181.168 438.347 181.24C438.281 181.147 438.213 181.058 438.141 180.968C438.053 180.821 437.936 180.702 437.787 180.614C437.664 180.52 437.542 180.419 437.414 180.33C437.003 180.045 436.464 179.878 435.977 179.754C435.054 179.515 434.086 179.395 433.134 179.389C432.187 179.384 431.253 179.483 430.317 179.613C429.493 179.728 428.574 180.008 427.904 180.506C427.385 180.891 427.067 181.386 427.158 182.062C427.233 182.622 427.675 183.261 428.277 183.362Z" fill="#06413F"/>
<path d="M410.62 178.933C410.41 178.808 410.194 178.699 409.973 178.599C409.786 178.512 409.273 178.243 409.66 178.456C409.519 178.378 409.378 178.301 409.236 178.229C408.593 177.906 407.927 177.69 407.236 177.512C405.724 177.128 404.133 177.031 402.586 177.194C400.933 177.367 399.423 177.767 397.993 178.631C397.791 178.752 397.583 178.871 397.415 179.04C397.301 179.184 397.189 179.33 397.081 179.475C397.111 179.427 397.143 179.379 397.173 179.333C396.732 179.64 396.476 180.147 396.481 180.68C396.484 181.195 396.751 181.624 397.196 181.872C397.737 182.173 398.249 182.029 398.804 181.885H397.967C398.426 181.957 398.749 181.975 399.213 181.872C399.229 181.869 399.66 181.763 399.377 181.823C399.111 181.879 399.826 181.767 399.905 181.757C399.996 181.743 400.495 181.695 399.969 181.746C400.065 181.735 400.162 181.723 400.258 181.711C400.508 181.68 400.757 181.65 401.009 181.631C402.101 181.543 403.189 181.493 404.285 181.458C405.301 181.424 406.335 181.416 407.351 181.459C407.788 181.479 408.22 181.493 408.655 181.506C408.9 181.512 408.796 181.551 408.629 181.498C408.719 181.525 408.81 181.543 408.901 181.567C409.082 181.618 409.258 181.675 409.434 181.743C410.14 182.013 410.986 181.503 411.249 180.853C411.532 180.146 411.292 179.333 410.62 178.933Z" fill="#06413F"/>
<path d="M418.48 224.95C419.998 221.897 422.763 219.657 425.958 218.217C423.184 217.935 410.09 216.723 406.784 218.599C403.083 220.702 407.469 229.142 415.123 229.564C415.928 229.609 416.659 229.545 417.357 229.435C417.419 227.894 417.774 226.369 418.48 224.95Z" fill="#06413F"/>
<path d="M357.982 207.185C357.982 207.185 359.307 212.316 366.92 218.275C374.534 224.233 385.568 228.591 385.568 228.591L386.451 224.729C386.451 224.729 375.03 219.764 369.734 214.302C364.437 208.841 363.776 205.86 363.776 205.86L357.982 207.185Z" fill="#DEE2EC"/>
<path d="M387.774 221.872C393.902 221.587 397.322 226.432 397.749 229.566C398.176 232.702 395.232 236.216 388.344 233.13C379.789 229.294 381.648 222.157 387.774 221.872Z" fill="#06413F"/>
<path d="M362.783 169.282C362.783 169.282 365.427 150.258 378.176 137.336C402.507 112.675 423.195 114.163 423.195 114.163C423.195 114.163 423.031 110.688 415.25 108.04C407.947 105.554 404.658 106.882 404.658 106.882C404.658 106.882 384.631 108.536 367.749 127.24C350.866 145.944 349.045 169.778 349.045 169.778L362.783 169.282Z" fill="#DEE2EC"/>
<path d="M360.961 166.964C345.022 164.263 336.134 176.73 335.471 189.309C334.809 201.889 343.95 211.452 356.161 210.495C383.636 208.343 380.492 170.274 360.961 166.964Z" fill="white"/>
<path d="M353.025 198.27C348.818 198.27 345.26 196.156 343.228 192.432C341.05 188.443 341.233 183.532 343.694 179.923C343.881 179.651 344.254 179.579 344.527 179.764C344.801 179.952 344.873 180.324 344.686 180.6C342.476 183.84 342.318 188.259 344.282 191.857C346.145 195.27 349.434 197.204 353.33 197.065C356.972 196.969 360.058 195.302 362.022 192.374C364.262 189.033 364.777 184.417 363.334 180.619C361.902 176.849 357.977 174.28 354.406 174.747C354.084 174.79 353.775 174.56 353.732 174.232C353.689 173.904 353.919 173.601 354.247 173.558C358.423 173.001 362.809 175.854 364.457 180.192C366.033 184.344 365.468 189.388 363.018 193.041C360.833 196.302 357.404 198.156 353.362 198.265C353.25 198.268 353.137 198.27 353.025 198.27Z" fill="#399C99"/>
<path d="M341.431 250.219C341.431 250.219 293.099 262.136 276.218 281.336C259.335 300.536 251.391 395.213 251.059 412.757C250.728 430.302 262.976 437.585 270.259 442.55C277.541 447.517 309.651 456.453 335.472 457.779C361.293 459.102 385.791 457.779 385.791 457.779C385.791 457.779 385.707 452.15 389.679 443.873C393.363 436.198 398.037 434.605 398.037 434.605L375.859 426.661C375.859 426.661 371.975 357.07 365.928 323.379C358.976 284.646 341.431 250.219 341.431 250.219Z" fill="#06413F"/>
<path d="M421.542 415.542C421.433 415.542 421.322 415.52 421.218 415.474C420.814 415.294 420.631 414.822 420.81 414.419C425.338 404.202 430.031 384.144 432.673 370.072L432.89 368.934C433.69 364.795 434.686 359.646 432.7 356.094C431.687 354.282 429.399 350.349 427.199 346.568C424.916 342.642 422.761 338.934 422.162 337.829C420.996 335.667 424.666 329.894 429.98 321.976C431.415 319.835 432.655 317.987 433.378 316.736C435.273 313.459 434.012 310.458 432.553 306.981L432.055 305.784C430.732 302.536 429.228 299.282 427.775 296.135C427.18 294.848 426.585 293.562 425.999 292.267C425.223 290.557 424.442 288.816 423.652 287.054C418.975 276.627 414.137 265.843 407.943 255.427C407.716 255.048 407.842 254.557 408.222 254.331C408.601 254.107 409.092 254.231 409.318 254.61C415.559 265.106 420.415 275.931 425.111 286.4C425.902 288.16 426.681 289.898 427.455 291.608C428.041 292.898 428.634 294.181 429.226 295.464C430.689 298.627 432.199 301.899 433.537 305.181L434.028 306.363C435.516 309.907 437.055 313.573 434.764 317.536C434.014 318.835 432.761 320.704 431.308 322.866C428.538 326.995 422.774 335.59 423.57 337.067C424.156 338.152 426.306 341.848 428.582 345.763C430.786 349.554 433.081 353.496 434.097 355.312C436.369 359.376 435.31 364.843 434.462 369.238L434.244 370.366C433.282 375.491 428.183 401.73 422.273 415.066C422.14 415.366 421.847 415.542 421.542 415.542Z" fill="#2F8784"/>
<path d="M374.368 418.357C374.163 418.357 373.957 418.279 373.8 418.122C370.038 414.33 351.899 382.92 350.549 377.013C349.808 373.779 351.666 365.578 353.459 357.645C354.85 351.499 356.288 345.144 355.88 343.424C355.267 340.853 350.63 337.063 346.144 333.399C340.725 328.973 335.122 324.394 334.035 320.271C332.802 315.584 333.858 286.245 334.555 266.832C334.805 259.851 335.003 254.338 335.002 252.371C335.002 251.93 335.36 251.571 335.802 251.571C336.243 251.571 336.602 251.928 336.602 252.37C336.603 254.367 336.405 259.893 336.154 266.89C335.501 285.035 334.41 315.403 335.582 319.864C336.536 323.483 342.178 328.093 347.157 332.16C352.064 336.17 356.699 339.957 357.435 343.056C357.931 345.135 356.582 351.096 355.021 357.997C353.347 365.394 351.45 373.776 352.107 376.658C353.432 382.448 371.242 413.271 374.936 416.992C375.246 417.307 375.245 417.813 374.931 418.123C374.776 418.279 374.571 418.357 374.368 418.357Z" fill="#2F8784"/>
<path d="M309.321 404.619C309.284 404.619 309.246 404.616 309.209 404.611C308.77 404.549 308.466 404.144 308.527 403.707C309.116 399.546 318.298 316.666 318.721 310.318C318.75 309.875 319.13 309.53 319.572 309.573C320.012 309.602 320.346 309.984 320.318 310.424C319.894 316.782 310.7 399.765 310.113 403.931C310.055 404.33 309.713 404.619 309.321 404.619Z" fill="#2F8784"/>
<path d="M375.196 427.128C375.096 427.128 374.994 427.109 374.895 427.071C372.861 426.245 363.869 423.213 352.488 419.375C329.514 411.628 298.052 401.018 292.068 397.908C291.676 397.704 291.524 397.223 291.727 396.829C291.93 396.436 292.412 396.28 292.805 396.49C298.679 399.541 331.368 410.564 352.999 417.858C364.407 421.706 373.418 424.744 375.496 425.586C375.906 425.754 376.103 426.22 375.936 426.629C375.812 426.94 375.511 427.128 375.196 427.128Z" fill="#2F8784"/>
<path d="M364.149 460.13C343.93 460.13 304.733 456.486 274.957 445.954C274.541 445.806 274.322 445.35 274.47 444.932C274.616 444.516 275.078 444.297 275.49 444.444C313.106 457.751 365.726 460.023 375.517 457.825C375.949 457.732 376.376 458.001 376.474 458.431C376.57 458.862 376.299 459.29 375.867 459.386C373.749 459.862 369.651 460.13 364.149 460.13Z" fill="#2F8784"/>
<path d="M132.735 261.382C139.012 266.903 146.963 270.442 152.47 276.825C154.636 279.338 156.583 282.01 158.596 284.644C160.06 286.561 163.969 289.742 164.603 292.15C164.883 293.212 164.823 291.774 164.543 290.71C164.532 290.665 164.508 290.622 164.495 290.577C163.947 285.698 163.551 280.801 163.38 275.894C163.211 271.001 163.515 266.086 163.207 261.199C162.775 254.306 160.623 247.63 154.988 243.311C152.235 241.201 148.695 239.914 146.163 237.572C143.759 235.348 144.724 232.801 146.137 230.321C147.459 228.001 149.062 225.719 149.577 223.047C150.163 220.01 149.022 216.879 147.481 214.292C144.203 208.79 136.932 202.652 130.047 203.476C124.305 204.162 123.655 210.785 123.737 215.401C123.817 219.886 124.26 224.359 124.303 228.849C124.348 233.46 123.564 237.983 123.499 242.575C123.387 250.383 126.995 256.334 132.735 261.382Z" fill="#10A7A2"/>
<path d="M191.053 333.033C192.801 328.867 194.805 324.969 197.271 321.179C200.653 315.979 204.405 310.912 206.676 305.088C208.996 299.142 208.655 292.784 208.884 286.523C209.052 281.921 210.418 277.333 210.05 272.72C209.873 270.507 208.597 266.928 205.735 267.294C203.508 267.579 202.185 270.341 201.329 272.102C199.834 275.177 198.799 278.459 197.689 281.683C197.257 282.945 196.844 284.23 196.295 285.448C195.978 286.157 194.964 287.885 194.009 287.649C192.383 287.248 193.858 280.606 194.1 279.43C195.316 273.525 197.145 268.033 197.397 261.955C197.765 253.142 197.081 242.651 188.461 237.833C186.207 236.573 183.354 235.822 181.213 237.707C179.1 239.566 178.503 242.787 178.189 245.438C177.228 253.577 179.143 261.285 181.751 268.942C183.905 275.265 186.471 281.79 186.658 288.552C186.839 295.062 183.453 300.829 181.863 306.977C179.33 316.776 179.853 321.971 179.842 325.144C179.825 329.12 179.97 333.053 180.26 337.016C180.529 340.661 180.844 344.304 181.289 347.931C181.38 348.665 181.463 349.43 181.561 350.198C180.161 346.825 179.671 342.965 178.513 339.577C176.452 333.555 174.058 327.659 172.082 321.606C170.449 316.606 168.905 311.573 166.748 306.766C164.724 302.257 162.281 297.489 158.506 294.181C156.225 292.181 153.46 291.011 150.409 291.035C148.457 291.049 146.703 291.726 144.841 292.217C142.546 292.824 140.741 292.614 138.855 291.165C132.677 286.416 130.799 277.902 126.225 271.889C122.815 267.405 114.721 259.761 108.77 264.651C105.613 267.245 104.743 272.259 104.908 276.101C105.116 280.923 107.223 285.333 109.732 289.363C112.401 293.649 115.847 297.488 118.298 301.896C119.749 304.499 119.975 306.995 119.745 309.933C119.529 312.697 119.287 315.377 120.229 318.046C123.061 326.062 131.905 324.942 138.783 325.152C143.594 325.297 148.757 326.014 153.327 327.553C158.607 329.333 162.042 332.768 163.93 337.992C165.295 341.771 166.026 346.064 168.599 349.273C169.81 350.784 171.41 351.899 173.172 352.678C175.853 353.864 184.031 354.381 184.092 353.633C184.293 351.134 185.481 348.494 186.221 346.123C187.615 341.672 189.25 337.333 191.053 333.033Z" fill="#10A7A2"/>
<path d="M229.023 331.524C228.313 326.942 228.449 321.89 226.279 317.684C226.124 317.382 225.713 317.305 225.433 317.462C223.879 318.324 223.813 320.834 223.687 322.374C223.476 324.929 223.633 327.489 223.319 330.034C222.767 334.508 221.733 339.119 220.122 343.337C218.298 348.106 214.983 350.812 210.165 352.3C207.071 353.257 204.036 354.09 201.453 356.143C199.14 357.982 197.533 360.518 196.343 363.19C193.127 370.401 191.596 378.462 190.105 386.164C189.101 391.353 188.284 396.562 187.023 401.698C185.764 406.83 184.413 411.937 183.69 417.178C183.569 417.442 183.439 417.705 183.327 417.972C182.997 418.758 184.223 419.18 184.647 418.529C189.618 410.876 195.674 404.007 203.937 399.793C207.668 397.89 212.625 397.494 215.737 394.503C218.105 392.228 218.429 388.758 218.076 385.663C217.612 381.598 215.663 378.25 213.633 374.786C212.519 372.884 211.202 370.844 211.652 368.532C212.076 366.35 213.89 364.746 215.69 363.626C219.125 361.494 223.141 360.535 225.954 357.462C228.567 354.607 230.015 351.054 230.305 347.209C230.69 342.082 229.807 336.585 229.023 331.524Z" fill="#10A7A2"/>
<path d="M161.239 357.944C156.852 352.293 151.557 347.419 145.6 343.462C142.421 341.352 134.922 337.186 133.408 343.414C132.52 347.064 136.093 350.654 138.444 352.942C141.976 356.379 146.063 359.347 149.044 363.31C145.352 364.486 141.496 364.715 138.29 367.267C134.493 370.29 132.791 376.123 136.554 379.824C138.389 381.627 140.821 382.734 143.106 383.842C146.076 385.278 149.1 386.581 152.143 387.853C158.716 390.598 165.372 393.382 170.976 397.882C176.688 402.464 182.06 410.213 182.512 417.69C182.557 418.403 182.285 417.754 182.711 417.427C182.944 417.637 183.728 417.261 183.724 416.845C183.607 405.749 181.613 395.184 177.079 385.022C172.876 375.6 167.575 366.107 161.239 357.944Z" fill="#10A7A2"/>
<path d="M146.085 254.658C148.506 259.681 151.036 264.588 153.722 269.487C156.309 274.202 158.892 278.881 160.826 283.911C163.209 290.105 165.706 296.207 168.225 302.346C170.842 308.727 173.183 315.228 175.058 321.866C178.722 334.825 181.444 348.161 182.789 361.562C183.474 368.378 183.785 375.234 183.597 382.082C183.452 387.433 182.849 392.727 182.345 398.05C181.821 403.589 181.445 409.194 181.908 414.753C182.295 419.399 183.034 424.922 186.641 428.236C187.346 428.887 188.345 428.077 187.935 427.237C183.652 418.45 183.89 408.871 184.711 399.343C185.162 394.082 185.789 388.849 185.967 383.569C186.193 376.85 185.929 370.119 185.297 363.428C184.053 350.276 181.431 337.279 178.029 324.524C176.285 317.983 174.125 311.57 171.639 305.274C169.146 298.964 166.266 292.828 163.852 286.487C159.482 275.021 152.823 264.853 146.927 254.165C146.62 253.61 145.817 254.1 146.085 254.658Z" fill="#67D1CE"/>
<path d="M182.987 348.425C183.68 340.075 184.419 332.033 187.235 324.067C188.547 320.352 190.137 316.739 191.404 313.009C192.452 309.926 194.019 305.699 193.212 302.422C193.121 302.057 192.588 302.075 192.489 302.422C191.95 304.294 192.009 306.347 191.62 308.265C191.243 310.133 190.739 311.969 190.158 313.784C188.923 317.643 187.308 321.341 185.91 325.139C183.208 332.477 181.82 340.605 182.412 348.425C182.44 348.795 182.955 348.795 182.987 348.425Z" fill="#67D1CE"/>
<path d="M134.597 300.435C137.912 308.443 147.876 308.905 155.133 310.699C160.317 311.979 164.141 315.436 166.89 319.926C169.896 324.835 171.932 330.601 173.604 336.079C173.623 336.142 173.714 336.118 173.7 336.054C171.669 326.457 168.762 314.899 158.868 310.433C150.938 306.855 140.492 308.652 135.42 300.087C135.17 299.668 134.397 299.95 134.597 300.435Z" fill="#67D1CE"/>
<path d="M177.747 347.158C178.14 347.691 178.502 348.248 178.91 348.769C179.112 349.028 179.315 349.272 179.569 349.48C179.83 349.692 180.136 349.956 180.492 349.95C180.641 349.947 180.745 349.782 180.665 349.649C180.5 349.382 180.204 349.22 179.974 349.017C179.737 348.808 179.494 348.601 179.264 348.385C178.801 347.947 178.377 347.47 177.923 347.022C177.836 346.936 177.668 347.054 177.747 347.158Z" fill="#67D1CE"/>
<path d="M157.018 372.562C162.735 377.256 168.012 382.808 172.202 388.893C174.206 391.802 176.054 394.88 177.732 397.989C179.564 401.382 180.766 404.97 182.201 408.53C182.31 408.8 182.802 408.806 182.766 408.454C181.972 400.925 177.201 394.467 173.382 388.202C171.398 384.947 168.93 382.325 166.278 379.61C163.537 376.806 160.746 374.155 157.534 371.894C157.143 371.619 156.646 372.254 157.018 372.562Z" fill="#67D1CE"/>
<path d="M202.548 363.696C199.793 365.257 199.705 369.606 199.65 372.384C199.546 377.72 200.868 382.731 198.526 387.816C196.41 392.409 193.031 396.245 190.374 400.51C187.886 404.502 185.433 409.606 185.487 414.413C185.49 414.689 185.918 414.848 186.047 414.565C187.049 412.382 187.409 409.904 188.126 407.617C188.932 405.046 190.06 402.712 191.518 400.451C194.074 396.489 197.214 392.883 199.287 388.622C201.473 384.131 201.153 379.683 201.009 374.817C200.916 371.715 200.606 366.729 203.108 364.422C203.5 364.062 202.999 363.441 202.548 363.696Z" fill="#67D1CE"/>
<path d="M184.135 414.908C173.042 414.754 151.912 414.633 151.912 414.633L157.141 453.452C158.317 462.185 165.771 468.702 174.584 468.702H183.695H184.575H193.685C202.498 468.702 209.951 462.185 211.127 453.452L216.355 414.633C216.355 414.633 195.227 414.754 184.135 414.908Z" fill="white"/>
<path d="M720.301 343.571L657.016 468.923L472.521 470.248L529.459 341.804L720.301 343.571Z" fill="#F6F7FA"/>
<path d="M350.072 469.466L350.107 459.432H469.541L524.493 338.936H715.499L720.301 343.57H533.706L476.602 469.365C476.602 469.365 350.072 469.136 350.072 469.466Z" fill="#D9DFE9"/>
<path d="M624.495 412.743C622.41 418.995 611.098 423.824 599.228 423.527C587.358 423.231 579.425 417.92 581.508 411.667C583.593 405.416 594.905 400.587 606.775 400.885C618.646 401.181 626.58 406.491 624.495 412.743Z" fill="#D9DFE9"/>
<path d="M476.604 470.165C476.494 470.165 476.38 470.141 476.273 470.093C475.872 469.91 475.694 469.437 475.876 469.033L533.192 342.771H720.302C720.744 342.771 721.102 343.129 721.102 343.571C721.102 344.013 720.744 344.371 720.302 344.371H534.224L477.332 469.696C477.2 469.99 476.907 470.165 476.604 470.165Z" fill="white"/>
<path d="M341.76 527.625H122.285V478.965H341.76V527.625Z" fill="#1F5452"/>
<path d="M735.386 527.625H340.506V478.965H735.386V527.625Z" fill="#179995"/>
<mask id="mask6_176_740" style="mask-type:luminance" maskUnits="userSpaceOnUse" x="122" y="478" width="614" height="10">
<path d="M122.285 478.965H735.385V487.902H122.285V478.965Z" fill="white"/>
</mask>
<g mask="url(#mask6_176_740)">
<path d="M341.76 478.964H340.506H122.285V487.902H340.506H341.76H735.386V478.964H341.76Z" fill="#256F6C"/>
</g>
<path d="M351.36 481.281H111.691V469.364H351.36V481.281Z" fill="#2E827F"/>
<path d="M744.986 481.281H350.107V469.364H744.986V481.281Z" fill="#1FC5C0"/>
<path d="M286.349 214.051H208.871C204.077 214.051 200.189 210.165 200.189 205.37V166.69C200.189 161.896 204.077 158.008 208.871 158.008H286.349C291.145 158.008 295.031 161.896 295.031 166.69V205.37C295.031 210.165 291.145 214.051 286.349 214.051Z" fill="white"/>
<path d="M317.111 186.03L288.012 173.752V198.309L317.111 186.03Z" fill="white"/>
<path d="M234.591 186.03C234.591 188.99 232.191 191.39 229.231 191.39C226.271 191.39 223.871 188.99 223.871 186.03C223.871 183.069 226.271 180.67 229.231 180.67C232.191 180.67 234.591 183.069 234.591 186.03Z" fill="#06413F"/>
<path d="M252.97 186.03C252.97 188.99 250.57 191.39 247.61 191.39C244.65 191.39 242.25 188.99 242.25 186.03C242.25 183.069 244.65 180.67 247.61 180.67C250.57 180.67 252.97 183.069 252.97 186.03Z" fill="#06413F"/>
<path d="M271.351 186.03C271.351 188.99 268.951 191.39 265.991 191.39C263.031 191.39 260.631 188.99 260.631 186.03C260.631 183.069 263.031 180.67 265.991 180.67C268.951 180.67 271.351 183.069 271.351 186.03Z" fill="#06413F"/>
<path d="M680.796 39.019H501.927C490.439 39.019 481.127 48.331 481.127 59.819V144.675C481.127 156.161 490.439 165.475 501.927 165.475H517.961C518.41 173.166 517.308 184.609 510.885 199.24C531.551 189.707 543.45 175.393 549.666 165.475H680.796C692.284 165.475 701.596 156.161 701.596 144.675V59.819C701.596 48.331 692.284 39.019 680.796 39.019Z" fill="#2EC7C2"/>
<path d="M604.493 79.4604H515.776C513.337 79.4604 511.361 77.4844 511.361 75.0476C511.361 72.6092 513.337 70.6332 515.776 70.6332H604.493C606.929 70.6332 608.907 72.6092 608.907 75.0476C608.907 77.4844 606.929 79.4604 604.493 79.4604Z" fill="white"/>
<path d="M668.107 105.171H514.065C512.573 105.171 511.361 103.962 511.361 102.469C511.361 100.975 512.573 99.765 514.065 99.765H668.107C669.6 99.765 670.809 100.975 670.809 102.469C670.809 103.962 669.6 105.171 668.107 105.171Z" fill="#CBE7FF"/>
<path d="M668.107 120.179H514.065C512.573 120.179 511.361 118.969 511.361 117.475C511.361 115.982 512.573 114.772 514.065 114.772H668.107C669.6 114.772 670.809 115.982 670.809 117.475C670.809 118.969 669.6 120.179 668.107 120.179Z" fill="#CBE7FF"/>
<path d="M634.504 136.179H514.065C512.573 136.179 511.361 134.968 511.361 133.475C511.361 131.982 512.573 130.772 514.065 130.772H634.504C635.998 130.772 637.208 131.982 637.208 133.475C637.208 134.968 635.998 136.179 634.504 136.179Z" fill="#CBE7FF"/>
<path d="M666.896 79.4604H624.575C622.136 79.4604 620.16 77.4844 620.16 75.0476C620.16 72.6092 622.136 70.6332 624.575 70.6332H666.896C669.333 70.6332 671.309 72.6092 671.309 75.0476C671.309 77.4844 669.333 79.4604 666.896 79.4604Z" fill="white"/>
<path d="M560.229 274.606H512.175C510.407 274.606 508.975 273.172 508.975 271.406V238.577C508.975 236.811 510.407 235.377 512.175 235.377H560.229C561.995 235.377 563.429 236.811 563.429 238.577V271.406C563.429 273.172 561.995 274.606 560.229 274.606Z" fill="white"/>
<path d="M536.534 260.854C536.264 260.854 535.992 260.762 535.77 260.578L509.618 238.978C509.106 238.556 509.035 237.799 509.456 237.289C509.882 236.777 510.637 236.708 511.146 237.127L536.514 258.081L561.235 236.569C561.734 236.135 562.494 236.186 562.928 236.687C563.365 237.186 563.31 237.945 562.811 238.38L537.322 260.559C537.098 260.754 536.816 260.854 536.534 260.854Z" fill="#2E827F"/>
<path d="M510.382 273.71C510.084 273.71 509.786 273.601 509.554 273.379C509.074 272.923 509.055 272.163 509.513 271.683L527.804 252.454C528.257 251.974 529.02 251.953 529.498 252.411C529.98 252.868 529.999 253.628 529.542 254.108L511.25 273.337C511.015 273.585 510.698 273.71 510.382 273.71Z" fill="#2E827F"/>
<path d="M562.025 273.007C561.717 273.007 561.409 272.89 561.175 272.655L542.957 254.388C542.49 253.917 542.49 253.157 542.961 252.69C543.431 252.221 544.191 252.223 544.658 252.692L562.874 270.959C563.341 271.429 563.341 272.189 562.871 272.656C562.637 272.89 562.33 273.007 562.025 273.007Z" fill="#2E827F"/>
<path d="M581.982 234.164C581.982 243.031 574.795 250.22 565.927 250.22C557.06 250.22 549.873 243.031 549.873 234.164C549.873 225.297 557.06 218.109 565.927 218.109C574.795 218.109 581.982 225.297 581.982 234.164Z" fill="#FF5F3E"/>
</g>
<path d="M727.18 228.255H633.386C629.852 228.255 626.986 225.39 626.986 221.855V207.18C626.986 203.646 629.852 200.78 633.386 200.78H727.18C730.714 200.78 733.58 203.646 733.58 207.18V221.855C733.58 225.39 730.714 228.255 727.18 228.255Z" fill="#06413F"/>
<path d="M640.158 221.722C639.736 221.722 639.398 221.573 639.144 221.272C638.888 220.973 638.776 220.597 638.806 220.147L639.211 216.589C639.242 216.499 639.227 216.44 639.168 216.41C639.106 216.379 639.032 216.394 638.941 216.454L636.014 218.57C635.654 218.84 635.278 218.939 634.888 218.862C634.499 218.789 634.184 218.555 633.942 218.165C633.672 217.685 633.621 217.264 633.786 216.904C633.949 216.544 634.229 216.29 634.618 216.139L637.906 214.653C637.995 214.622 638.042 214.578 638.042 214.518C638.042 214.458 637.995 214.413 637.906 214.382L634.618 212.896C634.197 212.717 633.926 212.432 633.808 212.042C633.688 211.651 633.733 211.261 633.942 210.87C634.184 210.48 634.499 210.248 634.888 210.171C635.278 210.098 635.654 210.181 636.014 210.421L638.941 212.582C639.032 212.642 639.106 212.656 639.168 212.626C639.227 212.597 639.242 212.536 639.211 212.446L638.806 208.888C638.776 208.438 638.896 208.062 639.168 207.763C639.438 207.462 639.797 207.314 640.248 207.314C640.667 207.314 641.013 207.462 641.283 207.763C641.554 208.062 641.658 208.438 641.597 208.888L641.192 212.446C641.163 212.536 641.178 212.597 641.238 212.626C641.298 212.656 641.374 212.642 641.464 212.582L644.392 210.466C644.75 210.194 645.133 210.098 645.539 210.171C645.944 210.248 646.251 210.48 646.461 210.87C646.731 211.35 646.786 211.771 646.618 212.131C646.454 212.491 646.176 212.747 645.786 212.896L642.499 214.382C642.41 214.413 642.365 214.458 642.365 214.518C642.365 214.578 642.41 214.622 642.499 214.653L645.786 216.139C646.206 216.318 646.485 216.605 646.618 216.994C646.754 217.386 646.702 217.776 646.461 218.165C646.251 218.555 645.944 218.789 645.539 218.862C645.133 218.939 644.75 218.854 644.392 218.616L641.464 216.454C641.374 216.394 641.298 216.379 641.238 216.41C641.178 216.44 641.163 216.499 641.192 216.589L641.597 220.147C641.658 220.597 641.546 220.973 641.261 221.272C640.974 221.573 640.606 221.722 640.158 221.722Z" fill="white"/>
<path d="M659.557 221.722C659.136 221.722 658.799 221.573 658.544 221.272C658.288 220.973 658.176 220.597 658.205 220.147L658.612 216.589C658.642 216.499 658.626 216.44 658.567 216.41C658.506 216.379 658.432 216.394 658.341 216.454L655.415 218.57C655.055 218.84 654.679 218.939 654.288 218.862C653.9 218.789 653.584 218.555 653.343 218.165C653.072 217.685 653.021 217.264 653.186 216.904C653.349 216.544 653.628 216.29 654.018 216.139L657.306 214.653C657.396 214.622 657.442 214.578 657.442 214.518C657.442 214.458 657.396 214.413 657.306 214.382L654.018 212.896C653.597 212.717 653.327 212.432 653.207 212.042C653.088 211.651 653.133 211.261 653.343 210.87C653.584 210.48 653.9 210.248 654.288 210.171C654.679 210.098 655.055 210.181 655.415 210.421L658.341 212.582C658.432 212.642 658.506 212.656 658.567 212.626C658.626 212.597 658.642 212.536 658.612 212.446L658.205 208.888C658.176 208.438 658.296 208.062 658.567 207.763C658.837 207.462 659.196 207.314 659.648 207.314C660.068 207.314 660.413 207.462 660.684 207.763C660.954 208.062 661.058 208.438 660.997 208.888L660.592 212.446C660.562 212.536 660.578 212.597 660.639 212.626C660.698 212.656 660.775 212.642 660.863 212.582L663.791 210.466C664.149 210.194 664.533 210.098 664.938 210.171C665.343 210.248 665.652 210.48 665.861 210.87C666.13 211.35 666.184 211.771 666.018 212.131C665.855 212.491 665.576 212.747 665.186 212.896L661.9 214.382C661.808 214.413 661.765 214.458 661.765 214.518C661.765 214.578 661.808 214.622 661.9 214.653L665.186 216.139C665.605 216.318 665.885 216.605 666.018 216.994C666.154 217.386 666.103 217.776 665.861 218.165C665.652 218.555 665.343 218.789 664.938 218.862C664.533 218.939 664.149 218.854 663.791 218.616L660.863 216.454C660.775 216.394 660.698 216.379 660.639 216.41C660.578 216.44 660.562 216.499 660.592 216.589L660.997 220.147C661.058 220.597 660.946 220.973 660.66 221.272C660.375 221.573 660.007 221.722 659.557 221.722Z" fill="white"/>
<path d="M678.957 221.722C678.536 221.722 678.197 221.573 677.942 221.272C677.686 220.973 677.574 220.597 677.605 220.147L678.011 216.589C678.04 216.499 678.025 216.44 677.966 216.41C677.905 216.379 677.83 216.394 677.741 216.454L674.813 218.57C674.453 218.84 674.077 218.939 673.688 218.862C673.297 218.789 672.982 218.555 672.742 218.165C672.47 217.685 672.419 217.264 672.585 216.904C672.749 216.544 673.027 216.29 673.417 216.139L676.705 214.653C676.793 214.622 676.84 214.578 676.84 214.518C676.84 214.458 676.793 214.413 676.705 214.382L673.417 212.896C672.997 212.717 672.725 212.432 672.606 212.042C672.488 211.651 672.533 211.261 672.742 210.87C672.982 210.48 673.297 210.248 673.688 210.171C674.077 210.098 674.453 210.181 674.813 210.421L677.741 212.582C677.83 212.642 677.905 212.656 677.966 212.626C678.025 212.597 678.04 212.536 678.011 212.446L677.605 208.888C677.574 208.438 677.696 208.062 677.966 207.763C678.237 207.462 678.595 207.314 679.048 207.314C679.467 207.314 679.811 207.462 680.081 207.763C680.353 208.062 680.457 208.438 680.395 208.888L679.992 212.446C679.961 212.536 679.976 212.597 680.038 212.626C680.097 212.656 680.173 212.642 680.262 212.582L683.19 210.466C683.549 210.194 683.931 210.098 684.337 210.171C684.742 210.248 685.051 210.48 685.261 210.87C685.529 211.35 685.584 211.771 685.417 212.131C685.254 212.491 684.974 212.747 684.585 212.896L681.299 214.382C681.208 214.413 681.163 214.458 681.163 214.518C681.163 214.578 681.208 214.622 681.299 214.653L684.585 216.139C685.005 216.318 685.283 216.605 685.417 216.994C685.552 217.386 685.501 217.776 685.261 218.165C685.051 218.555 684.742 218.789 684.337 218.862C683.931 218.939 683.549 218.854 683.19 218.616L680.262 216.454C680.173 216.394 680.097 216.379 680.038 216.41C679.976 216.44 679.961 216.499 679.992 216.589L680.395 220.147C680.457 220.597 680.344 220.973 680.059 221.272C679.774 221.573 679.405 221.722 678.957 221.722Z" fill="white"/>
<path d="M698.354 221.722C697.933 221.722 697.596 221.573 697.341 221.272C697.085 220.973 696.973 220.597 697.004 220.147L697.408 216.589C697.439 216.499 697.424 216.44 697.364 216.41C697.303 216.379 697.229 216.394 697.138 216.454L694.212 218.57C693.852 218.84 693.476 218.939 693.085 218.862C692.696 218.789 692.381 218.555 692.14 218.165C691.869 217.685 691.818 217.264 691.983 216.904C692.146 216.544 692.426 216.29 692.815 216.139L696.103 214.653C696.192 214.622 696.239 214.578 696.239 214.518C696.239 214.458 696.192 214.413 696.103 214.382L692.815 212.896C692.394 212.717 692.124 212.432 692.005 212.042C691.885 211.651 691.93 211.261 692.14 210.87C692.381 210.48 692.696 210.248 693.085 210.171C693.476 210.098 693.852 210.181 694.212 210.421L697.138 212.582C697.229 212.642 697.303 212.656 697.364 212.626C697.424 212.597 697.439 212.536 697.408 212.446L697.004 208.888C696.973 208.438 697.093 208.062 697.364 207.763C697.636 207.462 697.994 207.314 698.445 207.314C698.864 207.314 699.21 207.462 699.48 207.763C699.751 208.062 699.855 208.438 699.794 208.888L699.389 212.446C699.36 212.536 699.375 212.597 699.436 212.626C699.495 212.656 699.572 212.642 699.661 212.582L702.588 210.466C702.948 210.194 703.33 210.098 703.736 210.171C704.14 210.248 704.448 210.48 704.658 210.87C704.928 211.35 704.983 211.771 704.815 212.131C704.652 212.491 704.373 212.747 703.983 212.896L700.696 214.382C700.607 214.413 700.562 214.458 700.562 214.518C700.562 214.578 700.607 214.622 700.696 214.653L703.983 216.139C704.404 216.318 704.682 216.605 704.815 216.994C704.951 217.386 704.9 217.776 704.658 218.165C704.448 218.555 704.14 218.789 703.736 218.862C703.33 218.939 702.948 218.854 702.588 218.616L699.661 216.454C699.572 216.394 699.495 216.379 699.436 216.41C699.375 216.44 699.36 216.499 699.389 216.589L699.794 220.147C699.855 220.597 699.743 220.973 699.458 221.272C699.172 221.573 698.804 221.722 698.354 221.722Z" fill="white"/>
<path d="M717.754 221.722C717.334 221.722 716.996 221.573 716.742 221.272C716.486 220.973 716.374 220.597 716.402 220.147L716.809 216.589C716.839 216.499 716.823 216.44 716.764 216.41C716.703 216.379 716.63 216.394 716.538 216.454L713.612 218.57C713.252 218.84 712.876 218.939 712.486 218.862C712.097 218.789 711.782 218.555 711.54 218.165C711.27 217.685 711.218 217.264 711.383 216.904C711.546 216.544 711.825 216.29 712.215 216.139L715.503 214.653C715.593 214.622 715.639 214.578 715.639 214.518C715.639 214.458 715.593 214.413 715.503 214.382L712.215 212.896C711.794 212.717 711.524 212.432 711.404 212.042C711.286 211.651 711.33 211.261 711.54 210.87C711.782 210.48 712.097 210.248 712.486 210.171C712.876 210.098 713.252 210.181 713.612 210.421L716.538 212.582C716.63 212.642 716.703 212.656 716.764 212.626C716.823 212.597 716.839 212.536 716.809 212.446L716.402 208.888C716.374 208.438 716.494 208.062 716.764 207.763C717.034 207.462 717.393 207.314 717.846 207.314C718.265 207.314 718.61 207.462 718.881 207.763C719.151 208.062 719.255 208.438 719.194 208.888L718.79 212.446C718.759 212.536 718.775 212.597 718.836 212.626C718.895 212.656 718.97 212.642 719.06 212.582L721.988 210.466C722.346 210.194 722.73 210.098 723.135 210.171C723.54 210.248 723.849 210.48 724.058 210.87C724.327 211.35 724.382 211.771 724.215 212.131C724.052 212.491 723.774 212.747 723.383 212.896L720.097 214.382C720.006 214.413 719.961 214.458 719.961 214.518C719.961 214.578 720.006 214.622 720.097 214.653L723.383 216.139C723.802 216.318 724.082 216.605 724.215 216.994C724.351 217.386 724.3 217.776 724.058 218.165C723.849 218.555 723.54 218.789 723.135 218.862C722.73 218.939 722.346 218.854 721.988 218.616L719.06 216.454C718.97 216.394 718.895 216.379 718.836 216.41C718.775 216.44 718.759 216.499 718.79 216.589L719.194 220.147C719.255 220.597 719.143 220.973 718.857 221.272C718.572 221.573 718.204 221.722 717.754 221.722Z" fill="#2EC7C2"/>
</svg>
