<svg width="180" height="180" viewBox="0 0 180 180" fill="none" xmlns="http://www.w3.org/2000/svg">
<g id="Frame 4">
<path id="Vector" d="M69.1316 0C67.3588 0 65.5515 0.748678 64.2715 2.22401C62.9916 3.69935 62.3421 5.78261 62.3421 7.82609H35.1842C29.5693 7.82609 25 13.093 25 19.5652V168.261C25 174.733 29.5693 180 35.1842 180H143.816C148.528 180 152.504 176.296 153.662 171.28C153.883 170.317 154 169.302 154 168.261V19.5652C154 13.093 149.431 7.82609 143.816 7.82609H116.658C116.658 5.78261 116.008 3.69935 114.728 2.22401C113.449 0.748678 111.641 0 109.868 0H69.1316ZM69.1316 7.82609H109.868V31.3043H69.1316V7.82609ZM35.1842 15.6522H62.3421V23.4783H38.5789V164.348H140.421V23.4783H116.658V15.6522H143.816C145.686 15.6522 147.211 17.4052 147.211 19.5652V168.261C147.211 170.421 145.686 172.174 143.816 172.174H35.1842C33.3137 172.174 31.7895 170.421 31.7895 168.261V19.5652C31.7895 17.4052 33.3137 15.6522 35.1842 15.6522ZM45.3684 31.3043H62.3421C62.3421 33.3478 62.9916 35.4311 64.2715 36.9064C65.5515 38.3818 67.3588 39.1304 69.1316 39.1304H109.868C111.641 39.1304 113.449 38.3818 114.728 36.9064C116.008 35.4311 116.658 33.3478 116.658 31.3043H133.632V156.522H45.3684V31.3043ZM120.033 58.6498C119.482 58.6586 118.941 58.8218 118.457 59.1254C117.973 59.429 117.56 59.8638 117.255 60.3923L84.5471 115.366L61.2415 90.7031C60.9168 90.3335 60.5308 90.0432 60.1066 89.8494C59.6824 89.6556 59.2287 89.5624 58.7725 89.5753C58.3163 89.5882 57.8671 89.7069 57.4516 89.9245C57.0362 90.142 56.663 90.4539 56.3545 90.8414C56.0459 91.2289 55.8083 91.6841 55.6558 92.1799C55.5034 92.6756 55.4392 93.2017 55.467 93.7267C55.4949 94.2517 55.6144 94.7649 55.8182 95.2355C56.022 95.7061 56.306 96.1245 56.6533 96.4657L85.7207 127.235L122.851 64.8251C123.213 64.2356 123.427 63.542 123.468 62.8212C123.509 62.1004 123.377 61.3804 123.085 60.7411C122.793 60.1017 122.354 59.5679 121.815 59.1988C121.276 58.8297 120.659 58.6397 120.033 58.6498Z" fill="#024442" fill-opacity="0.1"/>
</g>
</svg>
