<svg width="180" height="180" viewBox="0 0 180 180" fill="none" xmlns="http://www.w3.org/2000/svg">
<g id="Frame 4">
<path id="Vector" d="M99.75 0C92.6025 0 86.75 6.48281 86.75 14.4C86.75 17.0437 87.4482 19.4625 88.5781 21.6H64C63.8984 21.6 63.7969 21.6 63.6953 21.6C62.0195 21.7687 60.7373 23.3297 60.75 25.2V39.6C60.75 41.5828 62.21 43.2 64 43.2H67.25V71.6625C67.2246 71.7469 67.1611 72.0422 67.0469 72.3375C66.8184 72.9281 66.374 73.8844 65.8281 74.925C64.749 77.0203 63.124 79.7625 61.1562 83.025C57.2334 89.55 51.9395 97.9312 46.6328 106.762C41.3262 115.594 36.0576 124.931 32.0078 133.425C27.958 141.919 25 149.442 25 155.925C25 161.859 26.8789 166.627 29.6719 170.1C32.4648 173.573 36.0068 175.767 39.4219 177.187C46.2646 180.028 52.9297 180 52.9297 180H127.07C127.07 180 133.735 180.028 140.578 177.187C143.993 175.767 147.535 173.573 150.328 170.1C153.121 166.627 155 161.859 155 155.925C155 149.442 152.042 141.919 147.992 133.425C143.942 124.931 138.674 115.594 133.367 106.762C128.061 97.9312 122.767 89.55 118.844 83.025C116.876 79.7625 115.251 77.0203 114.172 74.925C113.626 73.8844 113.182 72.9281 112.953 72.3375C112.839 72.0422 112.775 71.7469 112.75 71.6625V43.2H116C117.79 43.2 119.25 41.5828 119.25 39.6V25.2C119.25 23.2172 117.79 21.6 116 21.6H110.922C112.052 19.4625 112.75 17.0437 112.75 14.4C112.75 6.48281 106.897 0 99.75 0ZM99.75 7.2C103.381 7.2 106.25 10.3781 106.25 14.4C106.25 18.4219 103.381 21.6 99.75 21.6C96.1191 21.6 93.25 18.4219 93.25 14.4C93.25 10.3781 96.1191 7.2 99.75 7.2ZM67.25 28.8H112.75V36H71.2109C70.8809 35.9016 70.5381 35.8594 70.1953 35.8875C70.0938 35.9156 69.9922 35.9578 69.8906 36H67.25V28.8ZM73.75 43.2H106.25V72C106.25 73.4766 106.58 74.2781 106.961 75.2625C107.342 76.2469 107.875 77.2312 108.484 78.4125C109.716 80.775 111.366 83.7562 113.359 87.075C115.67 90.9141 118.869 96.0609 121.789 100.8H58.2109C61.1309 96.0609 64.3301 90.9141 66.6406 87.075C68.6338 83.7562 70.2842 80.775 71.5156 78.4125C72.125 77.2312 72.6582 76.2469 73.0391 75.2625C73.4199 74.2781 73.75 73.4766 73.75 72V43.2ZM90 50.4C82.8525 50.4 77 56.8828 77 64.8C77 72.7172 82.8525 79.2 90 79.2C97.1475 79.2 103 72.7172 103 64.8C103 56.8828 97.1475 50.4 90 50.4ZM90 57.6C93.6309 57.6 96.5 60.7781 96.5 64.8C96.5 68.8219 93.6309 72 90 72C86.3691 72 83.5 68.8219 83.5 64.8C83.5 60.7781 86.3691 57.6 90 57.6ZM53.8438 108C53.9834 108.014 54.1104 108.014 54.25 108H125.75C125.89 108.014 126.017 108.014 126.156 108C126.778 109.027 127.261 109.772 127.883 110.812C133.139 119.559 138.433 128.7 142.305 136.8C146.177 144.9 148.5 152.184 148.5 155.925C148.5 160.256 147.294 163.083 145.453 165.375C143.612 167.667 140.997 169.298 138.242 170.437C132.732 172.73 127.07 172.8 127.07 172.8H52.9297C52.9297 172.8 47.2676 172.73 41.7578 170.437C39.0029 169.298 36.3877 167.667 34.5469 165.375C32.7061 163.083 31.5 160.256 31.5 155.925C31.5 152.184 33.8232 144.9 37.6953 136.8C41.5674 128.7 46.8613 119.559 52.1172 110.812C52.7393 109.772 53.2217 109.027 53.8438 108ZM73.75 115.087C66.5771 115.087 60.6484 121.655 60.6484 129.6C60.6484 137.545 66.5771 144.112 73.75 144.112C80.9229 144.112 86.8516 137.545 86.8516 129.6C86.8516 121.655 80.9229 115.087 73.75 115.087ZM73.75 122.512C77.3555 122.512 80.1484 125.606 80.1484 129.6C80.1484 133.594 77.3555 136.687 73.75 136.687C70.1445 136.687 67.3516 133.594 67.3516 129.6C67.3516 125.606 70.1445 122.512 73.75 122.512ZM109.5 129.6C100.562 129.6 93.25 137.7 93.25 147.6C93.25 157.5 100.562 165.6 109.5 165.6C118.438 165.6 125.75 157.5 125.75 147.6C125.75 137.7 118.438 129.6 109.5 129.6ZM109.5 136.8C114.921 136.8 119.25 141.595 119.25 147.6C119.25 153.605 114.921 158.4 109.5 158.4C104.079 158.4 99.75 153.605 99.75 147.6C99.75 141.595 104.079 136.8 109.5 136.8Z" fill="#024442" fill-opacity="0.1"/>
</g>
</svg>
