<svg width="200" height="200" viewBox="0 0 200 200" fill="none" xmlns="http://www.w3.org/2000/svg">
<g id="list-ul-alt-svgrepo-com 1">
<path id="Vector" d="M66.6667 50.0057L175 50.0117M66.6667 100.006L175 100.013M66.6667 150.006L175 150.013M29.1667 50.0002H29.25M29.1667 100H29.25M29.1667 150H29.25M33.3333 50.0002C33.3333 52.3013 31.4678 54.1668 29.1667 54.1668C26.8655 54.1668 25 52.3013 25 50.0002C25 47.699 26.8655 45.8335 29.1667 45.8335C31.4678 45.8335 33.3333 47.699 33.3333 50.0002ZM33.3333 100C33.3333 102.301 31.4678 104.167 29.1667 104.167C26.8655 104.167 25 102.301 25 100C25 97.6993 26.8655 95.8335 29.1667 95.8335C31.4678 95.8335 33.3333 97.6993 33.3333 100ZM33.3333 150C33.3333 152.301 31.4678 154.167 29.1667 154.167C26.8655 154.167 25 152.301 25 150C25 147.699 26.8655 145.833 29.1667 145.833C31.4678 145.833 33.3333 147.699 33.3333 150Z" stroke="#06413F" stroke-opacity="0.1" stroke-width="15" stroke-linecap="round" stroke-linejoin="round"/>
</g>
</svg>
