<svg width="30" height="30" viewBox="0 0 30 30" fill="none" xmlns="http://www.w3.org/2000/svg">
<g id="pdf-file-svgrepo-com 1">
<g id="Group">
<path id="Vector" d="M27.858 6.90369V29.9999H2.80078V0H20.9544L24.1699 3.21557L27.858 6.90369Z" fill="#FFFEFE"/>
<path id="Vector_2" d="M14.16 2.00928H2.14258V7.38631H14.16V2.00928Z" fill="#2F9C91"/>
<g id="Group_2">
<g id="Group_3">
<path id="Vector_3" d="M6.45396 3.77232C6.40094 3.64424 6.33027 3.52939 6.23312 3.43225C6.13598 3.3351 6.01668 3.25559 5.87975 3.20256C5.73842 3.14514 5.57939 3.11865 5.40273 3.11865H4.08203V6.52852H4.749V5.24314H5.40273C5.57939 5.24314 5.73842 5.21666 5.87975 5.15924C6.01668 5.10621 6.13592 5.02676 6.23312 4.92955C6.33033 4.8324 6.401 4.72195 6.45396 4.58947C6.50254 4.46139 6.52908 4.32445 6.52908 4.18313C6.52902 4.03734 6.50254 3.90041 6.45396 3.77232ZM5.73396 4.51875C5.64561 4.60266 5.52197 4.64684 5.3718 4.64684H4.749V3.71045H5.3718C5.52197 3.71045 5.64566 3.75463 5.73396 3.84293C5.81787 3.92684 5.86205 4.04168 5.86205 4.18301C5.86211 4.32 5.81793 4.43484 5.73396 4.51875Z" fill="#FFFEFE"/>
<path id="Vector_4" d="M9.64291 4.4393C9.63852 4.32006 9.63406 4.21406 9.62082 4.11686C9.60758 4.01965 9.58549 3.93135 9.55455 3.84744C9.52361 3.76793 9.48389 3.68842 9.43086 3.61775C9.31162 3.44549 9.16584 3.3174 9.00242 3.23789C8.83455 3.15838 8.6358 3.11865 8.40172 3.11865H7.17383V6.52852H8.40172C8.6358 6.52852 8.83455 6.48879 9.00242 6.40928C9.16584 6.32977 9.31162 6.20168 9.43086 6.02941C9.48389 5.95875 9.52361 5.87924 9.55455 5.79973C9.58549 5.71582 9.60758 5.62746 9.62082 5.53031C9.63406 5.43316 9.63846 5.32711 9.64291 5.20787C9.6473 5.09303 9.6473 4.96494 9.6473 4.82361C9.6473 4.68229 9.6473 4.55414 9.64291 4.4393ZM8.97594 5.16814C8.97594 5.26975 8.96709 5.34926 8.95824 5.41992C8.94939 5.48619 8.93615 5.54801 8.91852 5.59219C8.90088 5.64076 8.87434 5.68494 8.84346 5.72467C8.73301 5.866 8.5652 5.93227 8.34436 5.93227H7.83641V3.71051H8.34436C8.5652 3.71051 8.73307 3.78117 8.84346 3.9225C8.87439 3.96223 8.90088 4.00201 8.91852 4.05059C8.93615 4.09916 8.94945 4.15658 8.95824 4.22725C8.96709 4.29352 8.97594 4.37742 8.97594 4.47457C8.98033 4.57178 8.98033 4.69102 8.98033 4.8235C8.98039 4.95609 8.98039 5.07094 8.97594 5.16814Z" fill="#FFFEFE"/>
<path id="Vector_5" d="M12.4924 3.71051V3.11865H10.2441V6.52852H10.9111V5.14605H12.2583V4.54975H10.9111V3.71051H12.4924Z" fill="#FFFEFE"/>
</g>
<g id="Group_4">
<path id="Vector_6" d="M6.45396 3.77232C6.40094 3.64424 6.33027 3.52939 6.23312 3.43225C6.13598 3.3351 6.01668 3.25559 5.87975 3.20256C5.73842 3.14514 5.57939 3.11865 5.40273 3.11865H4.08203V6.52852H4.749V5.24314H5.40273C5.57939 5.24314 5.73842 5.21666 5.87975 5.15924C6.01668 5.10621 6.13592 5.02676 6.23312 4.92955C6.33033 4.8324 6.401 4.72195 6.45396 4.58947C6.50254 4.46139 6.52908 4.32445 6.52908 4.18313C6.52902 4.03734 6.50254 3.90041 6.45396 3.77232ZM5.73396 4.51875C5.64561 4.60266 5.52197 4.64684 5.3718 4.64684H4.749V3.71045H5.3718C5.52197 3.71045 5.64566 3.75463 5.73396 3.84293C5.81787 3.92684 5.86205 4.04168 5.86205 4.18301C5.86211 4.32 5.81793 4.43484 5.73396 4.51875Z" fill="#FFFEFE"/>
</g>
</g>
<path id="Vector_7" opacity="0.08" d="M27.858 6.90395V30.0001H2.80078V24.585L14.5145 12.8713L15.2079 12.1778L15.5922 11.7935L16.2327 11.153L16.9924 10.3933L24.1699 3.21582L27.858 6.90395Z" fill="#040000"/>
<path id="Vector_8" d="M27.8576 6.90445H20.9531V0L27.8576 6.90445Z" fill="#BBBBBA"/>
<g id="Group_5">
<path id="Vector_9" d="M24.2802 21.718C24.1345 21.4618 23.9357 21.2189 23.6884 20.9981C23.4852 20.8126 23.2467 20.6403 22.9772 20.4813C21.8907 19.8408 20.3403 19.5316 18.2334 19.5316H18.0214C17.9066 19.4256 17.7873 19.3196 17.6637 19.2092C16.8642 18.4893 16.2282 17.7074 15.7335 16.8373C16.7052 14.6951 17.1689 12.787 17.1115 11.1615C17.1027 10.8877 17.063 10.6315 16.9923 10.3929C16.8863 10.0087 16.7096 9.66855 16.4622 9.39029C16.4579 9.3859 16.4579 9.3859 16.4534 9.38144C16.0603 8.93977 15.5126 8.68799 14.956 8.68799C14.3951 8.68799 13.8783 8.93092 13.5029 9.37705C13.1318 9.81873 12.9331 10.4239 12.9242 11.135C12.911 12.2215 12.9993 13.2507 13.1849 14.2003C13.2025 14.2754 13.2158 14.3505 13.2334 14.4255C13.4189 15.2869 13.6928 16.104 14.0461 16.8637C13.6309 17.7073 13.2114 18.4361 12.9198 18.9308C12.6989 19.3063 12.456 19.6994 12.2042 20.0925C11.0691 20.2957 10.1062 20.543 9.267 20.8522C8.13186 21.263 7.22196 21.793 6.56823 22.4246C6.14418 22.831 5.85707 23.2639 5.71575 23.7144C5.56557 24.1782 5.57442 24.642 5.74223 25.0571C5.8968 25.4414 6.17506 25.7638 6.54614 25.9847C6.6345 26.0377 6.72725 26.0818 6.8244 26.1216C7.10711 26.2365 7.41625 26.2983 7.7387 26.2983C8.48518 26.2983 9.2537 25.9758 9.90297 25.3972C11.1132 24.3151 12.3632 22.5748 13.1008 21.475C13.7059 21.3822 14.3641 21.3027 15.1062 21.2232C15.9807 21.1348 16.7537 21.0819 17.456 21.0553C17.6724 21.2497 17.88 21.4352 18.0788 21.6118C19.1831 22.5968 20.0222 23.3079 20.782 23.807C20.782 23.8114 20.7864 23.8114 20.7908 23.8114C21.0912 24.0102 21.3783 24.1736 21.6654 24.3062C21.9878 24.4563 22.3147 24.5358 22.6503 24.5358C23.0744 24.5358 23.4719 24.4078 23.8032 24.1737C24.1389 23.9307 24.3818 23.5818 24.4922 23.1887C24.6203 22.7162 24.5453 22.1906 24.2802 21.718ZM14.5144 12.8709C14.4525 12.3231 14.426 11.7534 14.4348 11.1527C14.4437 10.5829 14.6513 10.1986 14.956 10.1986C15.1857 10.1986 15.4287 10.4062 15.539 10.8037C15.57 10.9229 15.5921 11.0599 15.5965 11.2144C15.6053 11.3999 15.6009 11.5943 15.5921 11.793C15.5656 12.354 15.4684 12.9503 15.3006 13.5908C15.199 14.0016 15.0665 14.43 14.9031 14.8761C14.7176 14.2489 14.585 13.582 14.5144 12.8709ZM7.1469 24.4962C7.07178 24.3107 7.15575 23.9529 7.61512 23.5113C8.31743 22.8399 9.41723 22.3099 10.9499 21.9079C10.6584 22.3054 10.3713 22.6676 10.0931 22.9989C9.66901 23.5112 9.26266 23.9441 8.89604 24.2709C8.58245 24.5536 8.23791 24.7303 7.91108 24.7745C7.85366 24.7833 7.79623 24.7877 7.73881 24.7877C7.45164 24.7878 7.21756 24.6729 7.1469 24.4962ZM14.2052 19.8011L14.2361 19.7525L14.1875 19.7613C14.1964 19.7392 14.2096 19.7171 14.2229 19.6995C14.4084 19.3859 14.6424 18.984 14.8942 18.5202L14.9163 18.5688L14.9737 18.4495C15.1592 18.7146 15.3624 18.9752 15.5744 19.2269C15.676 19.3461 15.782 19.461 15.888 19.5758L15.8174 19.5802L15.8792 19.6376C15.6981 19.6509 15.5082 19.6686 15.3182 19.6862C15.199 19.6995 15.0753 19.7083 14.9516 19.7215C14.6955 19.748 14.4437 19.7746 14.2052 19.8011ZM21.6389 22.5572C21.1132 22.2215 20.5258 21.7489 19.8014 21.1172C20.8306 21.2232 21.6389 21.4485 22.2131 21.7842C22.4649 21.93 22.6548 22.0802 22.7829 22.2259C22.9949 22.4511 23.07 22.6543 23.0302 22.7913C22.9949 22.9282 22.8403 23.021 22.6503 23.021C22.5399 23.021 22.4251 22.9945 22.3058 22.937C22.1026 22.8399 21.8906 22.7206 21.6654 22.5749C21.6565 22.5749 21.6477 22.566 21.6389 22.5572Z" fill="#2F9C91"/>
</g>
</g>
</g>
</svg>
