<svg width="26" height="27" viewBox="0 0 26 27" fill="none" xmlns="http://www.w3.org/2000/svg">
<path id="Vector" d="M16.1019 18.9726L17.8752 17.1246C18.1481 16.8368 18.4731 16.6081 18.8312 16.4522C19.1894 16.2963 19.5737 16.2162 19.9618 16.2162C20.35 16.2162 20.7343 16.2963 21.0926 16.4522C21.4507 16.6081 21.7756 16.8368 22.0484 17.1246L24.1283 19.2922C24.4044 19.5764 24.6237 19.9147 24.7733 20.2881C24.9229 20.6613 25 21.062 25 21.4664C25 21.871 24.9229 22.2716 24.7733 22.6449C24.6237 23.0181 24.4044 23.3564 24.1283 23.6407L23.1817 24.6411C22.5294 25.3274 21.6859 25.7817 20.7712 25.9389C19.8566 26.096 18.9177 25.9483 18.0885 25.5165C10.9532 21.6889 5.1414 15.6372 1.46254 8.20478C1.0478 7.33977 0.906978 6.35998 1.06031 5.40631C1.21363 4.45263 1.65322 3.57409 2.31587 2.89719L3.26245 1.89687C3.817 1.32246 4.56714 1 5.34903 1C6.13092 1 6.88107 1.32246 7.43562 1.89687L9.52889 4.0783C10.0801 4.65621 10.3895 5.43782 10.3895 6.25264C10.3895 7.06743 10.0801 7.84905 9.52889 8.42695L7.7556 10.275C8.9281 11.9277 10.216 13.4878 11.6088 14.9431C12.9935 16.3886 14.4823 17.7219 16.0619 18.9309L16.1019 18.9726Z" stroke="white" stroke-width="2" stroke-linecap="round" stroke-linejoin="round"/>
</svg>
