<svg width="250" height="89" viewBox="0 0 250 89" fill="none" xmlns="http://www.w3.org/2000/svg">
<path d="M125.623 59.1076C125.463 59.0804 125.298 59.0912 125.143 59.1391C124.987 59.187 124.845 59.2707 124.728 59.3835C124.517 59.6651 124.425 60.0186 124.473 60.3673V73.6982H118.679V58.0509C118.644 57.337 118.891 56.6379 119.366 56.1041C120.183 55.2296 121.209 55.2817 122.052 55.2817H133.254C134.295 55.2817 135.144 55.3077 135.888 56.1041C136.365 56.6371 136.614 57.3363 136.58 58.0509V73.6982H130.802V60.3777C130.846 60.0292 130.755 59.6772 130.547 59.3939C130.428 59.2835 130.286 59.2013 130.131 59.1535C129.976 59.1058 129.812 59.0936 129.652 59.118L125.623 59.1076Z" fill="#002B64"/>
<path d="M143.004 60.0185C143.103 59.7687 143.613 58.7016 145.679 58.7016C147.746 58.7016 148.282 59.7426 148.355 60.0185L154.081 73.6982H149.307L145.924 64.8491C145.924 64.7658 145.804 64.4587 145.679 64.4587C145.554 64.4587 145.461 64.7658 145.435 64.8491L142.051 73.6982H137.283L143.004 60.0185Z" fill="#002B64"/>
<path d="M164.028 58.9462C164.626 58.917 165.223 59.0156 165.78 59.2355C166.336 59.4555 166.839 59.7916 167.256 60.2215C168.338 61.4136 168.489 63.1626 168.489 64.3546V70.5594C168.569 71.397 168.341 72.235 167.849 72.9174C167.563 73.2069 167.214 73.4272 166.83 73.5616C166.446 73.696 166.036 73.741 165.631 73.693H157.948C157.136 73.693 156.251 73.6358 155.559 72.9174C154.549 71.8764 154.518 69.9452 154.518 68.7792C154.518 67.5039 154.617 65.9474 155.648 65.0625C156.312 64.5656 157.139 64.337 157.964 64.4223H163.69V64.1568C163.705 63.8154 163.62 63.4769 163.445 63.1834C163.271 62.9657 163.043 62.7974 162.784 62.6951C162.524 62.5928 162.243 62.5602 161.967 62.6004H155.387V58.9566L164.028 58.9462ZM160.239 67.8318C160.109 67.821 159.978 67.8377 159.856 67.8807C159.733 67.9238 159.62 67.9922 159.526 68.0816C159.379 68.2815 159.309 68.527 159.328 68.774C159.31 69.0338 159.38 69.2921 159.526 69.5079C159.613 69.5937 159.718 69.6602 159.832 69.7032C159.947 69.7462 160.07 69.7648 160.192 69.7578H162.701C162.961 69.7813 163.221 69.7112 163.435 69.56C163.519 69.462 163.583 69.3477 163.622 69.2241C163.66 69.1005 163.673 68.9703 163.659 68.8416V67.8318H160.239Z" fill="#002B64"/>
<path d="M175.787 73.6722C175.032 73.7271 174.275 73.5964 173.581 73.2915C172.888 72.9867 172.28 72.5169 171.81 71.9232C170.806 70.5906 170.66 68.7635 170.66 66.5148C170.66 64.3806 170.759 62.0799 172.107 60.4974C173.112 59.3054 174.486 58.9723 176.032 58.9723H183.023V62.6576H178.265C176.62 62.6576 176.058 63.4905 175.787 64.4327C175.618 65.0477 175.542 65.6847 175.563 66.3222C175.563 68.014 175.834 68.5241 175.954 68.774C176.542 69.8567 177.796 69.7734 178.556 69.7734H183.319V73.6722H175.787Z" fill="#002B64"/>
<path d="M189.675 73.6722V62.6524H184.818V58.9723H199.362V62.6472H194.506V73.667L189.675 73.6722Z" fill="#002B64"/>
<path d="M211.303 73.6722L211.548 66.0463C211.548 65.8225 211.548 65.5987 211.35 65.5987C211.152 65.5987 211.079 65.8225 210.908 66.0463L206.296 72.5635C205.484 73.6982 204.922 73.8388 203.865 73.8388C202.808 73.8388 201.116 73.6149 201.116 71.0643V58.9723H205.926L205.687 66.6241C205.687 66.874 205.687 67.0406 205.905 67.0406C206.124 67.0406 206.249 66.7647 206.348 66.6241L211.059 59.9405C211.449 59.3835 211.845 58.8317 213.318 58.8317C216.066 58.8317 216.113 61.0232 216.113 61.7727V73.6982L211.303 73.6722Z" fill="#002B64"/>
<path d="M218.57 73.6722V58.9723H223.38V73.6722H218.57ZM228.314 73.6722L224.509 67.7641C224.155 67.286 223.936 66.7215 223.874 66.1296C223.967 65.426 224.237 64.7577 224.66 64.188L227.851 58.9827H233.15L229.298 64.5836C228.925 65.0172 228.679 65.5447 228.585 66.1088C228.651 66.5778 228.845 67.0193 229.147 67.3841L233.712 73.6826L228.314 73.6722Z" fill="#002B64"/>
<path d="M111.334 30.0304C111.13 29.9974 110.921 30.0102 110.722 30.0678C110.523 30.1254 110.339 30.2264 110.184 30.3636C110.052 30.5289 109.954 30.7193 109.898 30.9233C109.842 31.1273 109.827 31.3407 109.856 31.5504V47.8848H102.423V29.0518C102.403 28.6217 102.471 28.192 102.623 27.7892C102.775 27.3864 103.008 27.019 103.308 26.7094C104.349 25.6683 105.671 25.7204 106.759 25.7204H121.157C122.505 25.7204 123.588 25.7516 124.54 26.7094C124.841 27.0183 125.075 27.3856 125.228 27.7884C125.381 28.1913 125.45 28.6213 125.43 29.0518V47.8848H118.002V31.5504C118.031 31.3407 118.017 31.1273 117.96 30.9233C117.904 30.7193 117.807 30.5289 117.674 30.3636C117.517 30.2294 117.334 30.1303 117.135 30.0729C116.937 30.0155 116.728 30.001 116.524 30.0304H111.334Z" fill="#002B64"/>
<path d="M134.581 30.7748C134.712 30.4573 135.394 29.1299 138.158 29.1299C140.922 29.1299 141.598 30.4625 141.734 30.7748L149.391 47.8848H142.993L138.459 36.8026C138.428 36.6985 138.298 36.3133 138.137 36.3133C137.975 36.3133 137.845 36.6985 137.809 36.8026L133.311 47.8848H126.945L134.581 30.7748Z" fill="#002B64"/>
<path d="M182.976 47.8848V40.5036H177.25V47.8848H170.816V29.4839H177.26V36.2873H182.986V29.4839H189.42V47.8848H182.976Z" fill="#002B64"/>
<path d="M198.633 47.8848C196.031 47.8848 193.834 47.8848 192.455 45.4904C191.7 44.1682 191.57 42.2266 191.57 38.89C191.57 35.5533 191.403 32.7789 192.98 31.0819C194.558 29.385 197.91 29.2757 201.195 29.2757C204.713 29.2757 207.014 29.3485 208.394 30.5249C210.07 31.9512 210.267 34.5955 210.267 36.61C210.267 37.7916 210.2 39.145 209.226 39.9779C208.99 40.1728 208.718 40.3191 208.425 40.4084C208.132 40.4977 207.824 40.5283 207.519 40.4984H198.009C197.97 41.046 198.072 41.5944 198.306 42.0913C198.863 43.0282 200.049 42.9606 201.2 42.9606H209.648V47.8848H198.633ZM202.798 36.2821C202.933 36.3011 203.071 36.2895 203.201 36.2484C203.332 36.2072 203.451 36.1373 203.551 36.044C203.651 35.9507 203.728 35.8362 203.778 35.709C203.828 35.5817 203.849 35.445 203.839 35.3087C203.839 34.8194 203.61 34.2676 202.657 34.0594C202.093 33.9687 201.522 33.9217 200.95 33.9188C200.195 33.9188 199.175 33.9553 198.717 34.2312C198.061 34.6112 197.962 35.3399 198.024 36.2821H202.798Z" fill="#002B64"/>
<path d="M217.638 47.8848V34.0229H211.283V29.4474H230.443V34.0229H224.082V47.8848H217.638Z" fill="#002B64"/>
<path d="M244.05 29.4318C246.184 29.4318 247.6 30.2282 248.355 31.0299C249.802 32.5238 250 34.7101 250 36.204V43.9652C250 44.9386 249.932 46.0473 249.146 46.9166C248.36 47.7859 247.168 47.8848 246.184 47.8848H235.93C234.847 47.8848 233.66 47.8172 232.744 46.9114C231.396 45.6257 231.334 43.1948 231.334 41.7373C231.334 40.1393 231.464 38.1924 232.843 37.0837C233.796 36.3185 234.925 36.2873 235.935 36.2873H243.556V35.9593C243.574 35.5309 243.459 35.1074 243.228 34.7465C242.733 34.049 241.911 34.0177 241.255 34.0177H232.677V29.4318H244.05ZM238.991 40.4984C238.819 40.484 238.646 40.5043 238.483 40.5579C238.319 40.6116 238.168 40.6975 238.038 40.8107C237.847 41.0723 237.755 41.3933 237.778 41.7165C237.755 42.0462 237.847 42.3737 238.038 42.643C238.158 42.7514 238.299 42.8348 238.452 42.8884C238.605 42.9421 238.767 42.9648 238.928 42.9553H242.28C242.625 42.9843 242.969 42.8983 243.259 42.7107C243.371 42.5913 243.457 42.449 243.509 42.2935C243.561 42.1381 243.579 41.9732 243.561 41.8102V40.4984H238.991Z" fill="#002B64"/>
<path d="M162.649 29.4318C164.783 29.4318 166.199 30.2282 166.954 31.0299C168.401 32.5238 168.599 34.7101 168.599 36.204V43.9652C168.599 44.9386 168.531 46.0473 167.745 46.9166C166.959 47.7859 165.772 47.8848 164.783 47.8848H154.528C153.446 47.8848 152.259 47.8172 151.343 46.9114C149.995 45.6309 149.911 43.2 149.911 41.7425C149.911 40.1445 150.041 38.1977 151.421 37.0889C152.373 36.3237 153.503 36.2925 154.513 36.2925H162.139V35.9645C162.157 35.5361 162.042 35.1126 161.811 34.7517C161.316 34.0542 160.494 34.0229 159.838 34.0229H151.093V29.4318H162.649ZM157.589 40.4984C157.418 40.484 157.245 40.5043 157.081 40.5579C156.918 40.6116 156.766 40.6975 156.637 40.8107C156.445 41.0723 156.353 41.3933 156.376 41.7165C156.353 42.0462 156.445 42.3737 156.637 42.643C156.757 42.7514 156.898 42.8348 157.05 42.8884C157.203 42.9421 157.365 42.9648 157.527 42.9553H160.879C161.223 42.9843 161.567 42.8983 161.858 42.7107C161.97 42.5913 162.055 42.449 162.107 42.2935C162.159 42.1381 162.177 41.9732 162.159 41.8102V40.4984H157.589Z" fill="#002B64"/>
<path d="M71.3103 10.7862C68.4109 9.032 59.0412 3.63404 49.0574 7.14245C39.0735 10.6509 35.0029 17.9228 38.8809 23.6591C42.6391 29.2444 51.4883 28.4376 58.0106 26.6261C64.3299 24.8771 72.1952 22.8887 76.2866 26.2357C78.6097 28.2091 80.0979 30.9901 80.4509 34.0177C80.4509 34.0177 79.8002 15.9239 71.3103 10.7862Z" fill="url(#paint0_radial_345_582)"/>
<path d="M28.6784 29.2913C25.3469 28.6458 15.769 27.6776 7.03965 33.6377C-0.768391 38.9785 -2.1374 47.1717 3.21371 51.7732C8.32017 56.1718 21.0056 53.2776 26.5025 49.3371C31.838 45.5164 39.1047 39.7072 44.1435 38.1196C47.6675 37.0056 49.5415 37.3648 49.5415 37.3648C49.5415 37.3648 38.4332 31.186 28.6784 29.2913Z" fill="url(#paint1_radial_345_582)"/>
<path d="M34.9092 73.5264C38.4905 76.4675 46.0434 79.5959 57.9846 77.4357C69.9257 75.2755 80.8517 69.2216 84.5319 60.8618C88.5504 51.6847 86.9264 43.7205 79.54 43.1167C72.1535 42.5129 62.711 48.9259 58.4426 56.3592C54.2471 63.6779 52.6543 65.8954 45.9497 68.1077C37.5223 70.8977 34.9092 73.5264 34.9092 73.5264Z" fill="url(#paint2_radial_345_582)"/>
<path d="M84.9587 59.8572C82.4758 66.2494 75.4485 80.9024 56.4177 86.67C38.074 92.2293 20.5476 84.718 11.688 75.0464C2.74523 65.2916 0.517333 53.3609 10.1525 46.7969C19.0797 40.7118 30.4534 44.8865 39.5784 52.2365C48.7034 59.5865 59.7752 69.8723 69.9465 68.3731C82.7621 66.4628 84.9587 59.8572 84.9587 59.8572Z" fill="url(#paint3_radial_345_582)"/>
<path d="M31.6038 6.82492C30.1046 5.95042 25.7894 5.26331 20.9848 7.05916C15.9512 8.91748 10.8135 13.5294 9.20509 16.9077C7.44567 20.6243 8.71578 23.5081 11.7349 23.2166C14.754 22.9251 17.7991 20.1454 19.7043 16.611C21.3388 13.5294 24.2382 9.18295 26.362 7.9701C29.6674 6.10138 31.6038 6.82492 31.6038 6.82492Z" fill="url(#paint4_linear_345_582)"/>
<path d="M14.4781 10.7758C18.3145 7.65258 25.1543 2.96775 33.2174 1.18751C46.4807 -1.70667 56.5843 0.875192 62.888 6.91341C69.7487 13.4878 71.8308 21.3375 65.9383 25.1894C59.7283 29.2236 53.6329 25.1894 47.7196 18.891C41.6397 12.4884 36.0856 9.31309 29.1468 8.08462C24.0929 7.2211 18.8964 8.17446 14.4781 10.7758Z" fill="url(#paint5_radial_345_582)"/>
<path d="M26.4973 28.9789C26.4973 28.9789 33.613 29.7285 40.4997 37.4741C47.7872 45.6986 62.9192 60.5911 78.2386 49.6859C93.204 39.0357 82.5695 21.504 76.8956 15.3617C73.2987 11.4733 70.0089 10.0262 70.0089 10.0262C70.0089 10.0262 74.9124 12.9464 76.2554 18.2715C77.1176 21.7628 76.5812 25.4528 74.7606 28.5541C72.9401 31.6554 69.9796 33.9224 66.5109 34.8714C57.9481 37.2971 52.5658 34.6007 42.0457 31.9929C31.5257 29.385 26.4973 28.9789 26.4973 28.9789Z" fill="url(#paint6_radial_345_582)"/>
<defs>
<radialGradient id="paint0_radial_345_582" cx="0" cy="0" r="1" gradientUnits="userSpaceOnUse" gradientTransform="translate(134.226 54.7777) rotate(162.461) scale(99.9513 66.0971)">
<stop offset="0.17" stop-color="white"/>
<stop offset="1" stop-color="#A6CE39"/>
</radialGradient>
<radialGradient id="paint1_radial_345_582" cx="0" cy="0" r="1" gradientUnits="userSpaceOnUse" gradientTransform="translate(106.051 45.5142) rotate(-96.6785) scale(61.4538 119.768)">
<stop stop-color="#E5F1D4"/>
<stop offset="1" stop-color="#A6CE39"/>
</radialGradient>
<radialGradient id="paint2_radial_345_582" cx="0" cy="0" r="1" gradientUnits="userSpaceOnUse" gradientTransform="translate(163.909 51.7445) rotate(-72.6569) scale(52.4504 132.072)">
<stop stop-color="#C7EAFB"/>
<stop offset="1" stop-color="#00BDF2"/>
</radialGradient>
<radialGradient id="paint3_radial_345_582" cx="0" cy="0" r="1" gradientUnits="userSpaceOnUse" gradientTransform="translate(102.507 74.5031) rotate(-102.534) scale(61.767 167.964)">
<stop stop-color="#0083CA"/>
<stop offset="0.42" stop-color="#009EDC"/>
<stop offset="1" stop-color="#00C0F3"/>
</radialGradient>
<linearGradient id="paint4_linear_345_582" x1="143.041" y1="-4.99757" x2="130.633" y2="103.454" gradientUnits="userSpaceOnUse">
<stop offset="0.28" stop-color="#F15A22"/>
<stop offset="1" stop-color="#FFCB05"/>
</linearGradient>
<radialGradient id="paint5_radial_345_582" cx="0" cy="0" r="1" gradientUnits="userSpaceOnUse" gradientTransform="translate(153.883 33.6397) rotate(109.011) scale(50.1931 152.332)">
<stop stop-color="#F15A22"/>
<stop offset="1" stop-color="#FAA61A"/>
</radialGradient>
<radialGradient id="paint6_radial_345_582" cx="0" cy="0" r="1" gradientUnits="userSpaceOnUse" gradientTransform="translate(64.6664 32.8194) rotate(-113.962) scale(21.6116 26.5131)">
<stop stop-color="#A6CE39"/>
<stop offset="1" stop-color="#00A651"/>
</radialGradient>
</defs>
</svg>
