<svg width="166" height="166" viewBox="0 0 166 166" fill="none" xmlns="http://www.w3.org/2000/svg">
<path id="Vector" d="M36.3746 69.3735C41.6071 84.1952 49.6713 97.8503 60.1153 109.574M60.1153 109.574C59.7414 104.77 60.3588 99.9401 61.9289 95.3863C63.4991 90.8325 65.9882 86.6525 69.2408 83.1073C75.5681 77.7121 82.5365 73.1231 89.9871 69.4449C89.943 62.9316 91.7579 56.5416 95.2175 51.0301C98.6771 45.5185 103.637 41.1157 109.51 38.3417C115.384 35.5678 121.927 34.5387 128.365 35.3759C134.803 36.2132 140.867 38.8819 145.842 43.0667C150.817 47.2515 154.494 52.7776 156.438 58.992C158.383 65.2064 158.514 71.8494 156.816 78.1362C155.119 84.423 151.663 90.0909 146.857 94.4702C142.052 98.8495 136.097 101.757 129.697 102.85C116.651 122.664 88.1334 158 48.9222 158C28.461 158 8.0712 96.5551 8.0712 69.2303V35.9685C8.09131 33.7838 8.52686 31.6231 9.35447 29.6023M60.1153 109.574C60.2971 114.423 61.0875 119.229 62.4679 123.88M69.3121 38.7582C69.3121 55.7455 55.587 69.5165 38.6561 69.5165C21.7252 69.5165 8 55.7455 8 38.7582C8 21.7709 21.7252 8 38.6561 8C55.587 8 69.3121 21.7709 69.3121 38.7582ZM42.0782 38.7583C42.0782 40.6545 40.5461 42.1918 38.6561 42.1918C36.7662 42.1918 35.234 40.6545 35.234 38.7583C35.234 36.862 36.7662 35.3248 38.6561 35.3248C40.5461 35.3248 42.0782 36.862 42.0782 38.7583Z" stroke="#06413F" stroke-opacity="0.1" stroke-width="15" stroke-miterlimit="10"/>
</svg>
