<svg width="200" height="200" viewBox="0 0 200 200" fill="none" xmlns="http://www.w3.org/2000/svg">
<g id="flag-for-flag-ukraine-svgrepo-com 1" clip-path="url(#clip0_304_3)">
<g id="Vector">
<path d="M177.778 27.7773H22.2222C16.3285 27.7773 10.6762 30.1186 6.50874 34.2861C2.34126 38.4536 0 44.1059 0 49.9996V99.9996H200V49.9996C200 44.1059 197.659 38.4536 193.491 34.2861C189.324 30.1186 183.671 27.7773 177.778 27.7773Z" fill="#005BBB"/>
<path d="M200 150C200 155.893 197.659 161.546 193.491 165.713C189.324 169.881 183.671 172.222 177.778 172.222H22.2222C16.3285 172.222 10.6762 169.881 6.50874 165.713C2.34126 161.546 0 155.893 0 150V99.9996H200V150Z" fill="#FFD500"/>
</g>
</g>
<defs>
<clipPath id="clip0_304_3">
<rect width="200" height="200" fill="white"/>
</clipPath>
</defs>
</svg>
