<svg width="1034" height="1282" viewBox="0 0 1034 1282" fill="none" xmlns="http://www.w3.org/2000/svg">
<path fill-rule="evenodd" clip-rule="evenodd" d="M618.231 0C649.201 0.469 668.031 15.803 674.731 46C676.171 73.368 664.341 92.368 639.231 103C638.231 117.985 637.901 132.985 638.231 148C667.861 156.14 685.031 175.473 689.731 206C690.581 214.662 689.741 223.162 687.231 231.5C689.511 233.977 692.171 235.977 695.231 237.5C725.081 254.699 754.921 271.866 784.731 289C809.741 265.77 837.581 261.604 868.231 276.5C897.881 296.79 907.721 324.29 897.731 359C888.391 381.014 872.221 395.181 849.231 401.5C849.091 438.98 849.251 476.48 849.731 514C882.251 524.022 899.751 546.022 902.231 580C901.741 586.42 900.741 592.75 899.231 599C899.341 599.94 899.671 600.78 900.231 601.5C914.861 609.76 929.521 617.93 944.231 626C971.391 605.96 997.231 607.62 1021.73 631C1037.02 653.39 1037.02 675.72 1021.73 698C1000.37 719.9 976.531 723.07 950.231 707.5C932.841 693.51 925.681 675.34 928.731 653C914.321 645.21 900.151 637.05 886.231 628.5C884.561 627.83 882.901 627.83 881.231 628.5C854.351 651.67 825.681 654 795.231 635.5C791.721 632.65 788.221 629.82 784.731 627C751.811 645.21 719.311 664.04 687.231 683.5C694.611 714.41 685.611 739.41 660.231 758.5C653.741 762.75 646.741 765.91 639.231 768C638.061 805.66 637.901 843.33 638.731 881C678.261 895.39 694.591 923.39 687.731 965C676.751 995.8 654.921 1012.47 622.231 1015C602.951 1013.77 586.451 1006.44 572.731 993C541.143 1011.88 509.31 1030.38 477.231 1048.5C476.432 1052.28 476.599 1056.11 477.731 1060C480.159 1093.99 465.992 1118.15 435.231 1132.5C432.299 1133.64 429.299 1134.48 426.231 1135C426.064 1149.67 426.231 1164.34 426.731 1179C452.746 1190.02 464.746 1209.68 462.731 1238C456.303 1265.93 438.803 1280.6 410.231 1282C390.488 1281.22 375.321 1272.55 364.731 1256C352.841 1231.01 356.675 1208.85 376.231 1189.5C381.861 1185.1 388.028 1181.6 394.731 1179C395.231 1164.34 395.398 1149.67 395.231 1135C366.718 1126.99 349.385 1108.49 343.231 1079.5C343.564 1079.17 343.898 1078.83 344.231 1078.5C343.461 1075.89 342.794 1073.23 342.231 1070.5C342.841 1063.65 344.174 1056.99 346.231 1050.5C313.731 1031.33 281.231 1012.17 248.731 993C220.186 1019.26 189.686 1021.76 157.231 1000.5C132.179 978.34 125.346 951.51 136.731 920C146.218 900.35 161.384 887.35 182.231 881C183.564 843.33 183.564 805.67 182.231 768C153.831 759.17 136.998 740.17 131.731 711C130.742 701.48 131.575 692.15 134.231 683C119.662 673.13 104.495 664.13 88.7309 656C71.9848 670.28 53.1518 673.78 32.2308 666.5C4.48885 651.85 -5.34415 629.35 2.73085 599C14.3098 574.286 33.8098 563.12 61.2308 565.5C93.0518 574.675 107.552 595.84 104.731 629C119.251 637.53 133.751 646.03 148.231 654.5C149.231 655.17 150.231 655.17 151.231 654.5C172.397 634.8 196.731 629.8 224.231 639.5C233.49 643.43 241.656 648.93 248.731 656C280.564 637.5 312.398 619 344.231 600.5C337.83 565.383 349.83 538.383 380.231 519.5C385.092 517.659 389.926 515.825 394.731 514C395.231 476.335 395.398 438.668 395.231 401C368.927 393.862 352.094 377.196 344.731 351C338.919 313.462 353.419 286.962 388.231 271.5C415.749 263.291 439.749 269.125 460.231 289C492.316 270.207 524.482 251.54 556.731 233C549.699 190.38 566.366 161.714 606.731 147C607.561 132.322 607.401 117.655 606.231 103C577.675 90.889 566.175 69.555 571.731 39C579.559 16.659 595.061 3.659 618.231 0ZM618.231 179C644.861 179.799 657.361 193.466 655.731 220C650.021 239.025 637.191 247.858 617.231 246.5C603.351 244.147 594.181 236.314 589.731 223C585.941 199.559 595.441 184.892 618.231 179ZM571.231 260C573.039 259.991 574.706 260.491 576.231 261.5C597.311 280.782 621.311 285.449 648.231 275.5C657.021 271.694 664.861 266.527 671.731 260C703.931 278.186 736.101 296.519 768.231 315C768.561 315.667 768.901 316.333 769.231 317C762.081 351.195 773.411 377.362 803.231 395.5C807.741 397.618 812.411 399.451 817.231 401C818.051 402.608 818.721 404.275 819.231 406C818.251 442.456 817.921 478.789 818.231 515C799.021 519.699 784.521 530.699 774.731 548C766.961 564.142 765.131 580.975 769.231 598.5C769.091 599.27 768.751 599.94 768.231 600.5C735.981 618.87 703.821 637.37 671.731 656C646.361 632.39 618.191 628.56 587.231 644.5C582.381 648.09 577.714 651.93 573.231 656C540.401 637.42 507.734 618.59 475.231 599.5C483.53 559.43 468.863 531.43 431.231 515.5C429.597 515.006 427.93 514.84 426.231 515C426.231 477 426.231 439 426.231 401C448.4 394.663 464.234 380.997 473.731 360C479.01 345.617 479.51 331.117 475.231 316.5C507.401 297.803 539.401 278.97 571.231 260ZM408.231 301C433.88 303.288 445.713 317.288 443.731 343C437.219 362.5 423.719 371 403.231 368.5C383.174 361.902 374.674 348.069 377.731 327C382.898 312.324 393.064 303.658 408.231 301ZM826.231 302C854.411 299.974 868.251 312.974 867.731 341C862.081 361.641 848.581 370.808 827.231 368.5C808.681 362.939 799.851 350.439 800.731 331C803.451 316.124 811.951 306.457 826.231 302ZM407.231 546C433.894 547.492 446.061 561.492 443.731 588C437.629 606.64 424.795 615.14 405.231 613.5C384.143 607.72 374.977 593.89 377.731 572C382.136 557.091 391.97 548.424 407.231 546ZM829.231 546C855.381 545.98 868.211 558.98 867.731 585C862.671 605.73 849.501 615.23 828.231 613.5C805.011 606.24 796.511 590.74 802.731 567C807.931 555.328 816.761 548.328 829.231 546ZM359.231 627C363.244 628.82 366.911 631.32 370.231 634.5C394.439 650.37 419.439 651.7 445.231 638.5C450.151 635.58 454.484 631.92 458.231 627.5C459.564 626.83 460.898 626.83 462.231 627.5C493.694 645.47 525.027 663.63 556.231 682C549.915 714.19 559.915 740.03 586.231 759.5C592.831 763.42 599.831 766.25 607.231 768C607.401 805.67 607.231 843.33 606.731 881C570.756 892.99 553.756 917.99 555.731 956C556.092 959.03 556.592 962.03 557.231 965C556.898 965.67 556.564 966.33 556.231 967C524.146 985.79 491.98 1004.46 459.731 1023C437.472 1001.43 411.972 996.26 383.231 1007.5C375.117 1010.95 368.117 1015.95 362.231 1022.5C329.218 1004.15 296.218 985.49 263.231 966.5C271.103 935.11 262.103 909.78 236.231 890.5C229.643 886.47 222.643 883.3 215.231 881C213.898 843.33 213.898 805.67 215.231 768C243.486 759.58 260.319 740.91 265.731 712C266.398 705.33 266.398 698.67 265.731 692C265.399 688.99 264.565 686.16 263.231 683.5C295.491 664.88 327.491 646.05 359.231 627ZM195.231 668C221.906 669.5 234.073 683.5 231.731 710C224.538 731.02 210.038 739.18 188.231 734.5C170.215 726.98 162.715 713.48 165.731 694C168.229 685.5 173.062 678.67 180.231 673.5C185.143 671.03 190.143 669.19 195.231 668ZM620.231 668C638.631 668.58 650.461 677.58 655.731 695C658.071 708.99 653.901 720.49 643.231 729.5C626.021 739.56 610.181 737.73 595.731 724C585.731 709.67 585.731 695.33 595.731 681C602.391 673.59 610.561 669.26 620.231 668ZM192.231 913C220.429 913.03 233.596 927.03 231.731 955C225.904 973.33 213.404 981.83 194.231 980.5C173.082 975.33 163.582 961.83 165.731 940C169.404 925.83 178.238 916.83 192.231 913ZM616.231 913C644.401 913 657.561 927 655.731 955C649.461 973.9 636.291 982.4 616.231 980.5C595.051 973.96 586.221 959.79 589.731 938C594.251 924.97 603.091 916.64 616.231 913ZM408.231 1035C433.866 1037.25 445.7 1051.25 443.731 1077C437.412 1095.97 424.246 1104.47 404.231 1102.5C383.442 1096.44 374.609 1082.61 377.731 1061C382.506 1045.88 392.673 1037.21 408.231 1035Z" fill="url(#paint0_linear_547_102)" fill-opacity="0.15"/>
<defs>
<linearGradient id="paint0_linear_547_102" x1="953.5" y1="1282" x2="332" y2="-30.5001" gradientUnits="userSpaceOnUse">
<stop stop-color="#08BDB8"/>
<stop offset="0.0625" stop-color="#0DFFF8"/>
<stop offset="1" stop-color="#2D807D"/>
</linearGradient>
</defs>
</svg>
