<svg width="590" height="617" viewBox="0 0 590 617" fill="none" xmlns="http://www.w3.org/2000/svg">
<path d="M225 244.085L286.25 279.041C293.75 284.035 298.75 291.525 298.75 300.264V371.425C298.75 380.164 293.75 388.903 286.25 392.649L225 428.853C217.5 433.847 207.5 433.847 200 428.853L138.75 393.897C131.25 388.903 126.25 381.413 126.25 372.674V301.513C126.25 292.774 131.25 284.035 138.75 280.289L200 245.333C207.5 239.091 217.5 239.091 225 244.085Z" fill="#2F9C91"/>
<path d="M402.5 120.489C400 119.241 398.75 119.241 396.25 120.489L343.75 150.452C341.25 151.7 341.25 154.197 341.25 155.446V215.37C341.25 217.867 342.5 219.116 343.75 220.364L396.25 250.327C398.75 251.575 400 251.575 402.5 250.327L455 220.364C457.5 219.116 457.5 216.619 457.5 215.37V155.446C457.5 152.949 456.25 151.7 455 150.452L402.5 120.489ZM410 110.502L462.5 140.464C468.75 144.21 472.5 150.452 472.5 156.694V216.619C472.5 222.861 468.75 229.103 462.5 232.849L410 262.811C403.75 266.556 397.5 266.556 391.25 262.811L338.75 232.849C332.5 229.103 328.75 222.861 328.75 216.619V156.694C328.75 150.452 332.5 144.21 338.75 140.464L391.25 110.502C396.25 106.756 403.75 106.756 410 110.502ZM437.5 451.325L385 481.288V541.213L437.5 571.175L490 541.213V481.288L437.5 451.325ZM502.5 458.816C510 463.81 515 471.3 515 480.039V539.964C515 548.703 510 557.442 502.5 561.188L450 593.647C442.5 598.641 432.5 598.641 425 593.647L372.5 563.685C365 558.691 360 551.2 360 542.461V482.536C360 473.797 365 465.058 372.5 461.313L425 431.35C432.5 426.356 442.5 426.356 450 431.35L502.5 458.816ZM37.5 44.3346V79.2908L68.75 96.7689L100 79.2908V44.3346L68.75 26.8564L37.5 44.3346ZM115 24.3596C121.25 28.1049 125 34.3471 125 40.5893V83.0361C125 89.2783 121.25 95.5205 115 99.2658L77.5 120.489C71.25 124.235 65 124.235 58.75 120.489L21.25 99.2658C16.25 95.5205 12.5 89.2783 12.5 83.0361V40.5893C12.5 34.3471 16.25 28.1049 22.5 24.3596L60 3.13613C66.25 -0.60918 72.5 -0.60918 78.75 3.13613L115 24.3596ZM50 518.741L12.5 539.964V582.411L50 603.635L87.5 582.411V539.964L50 518.741ZM56.25 507.505L93.75 528.728C97.5 531.225 100 534.97 100 539.964V582.411C100 587.405 97.5 591.15 93.75 593.647L56.25 614.87C52.5 617.367 47.5 617.367 43.75 614.87L6.25 593.647C2.5 591.15 0 587.405 0 582.411V539.964C0 534.97 2.5 531.225 6.25 528.728L43.75 507.505C47.5 505.008 52.5 505.008 56.25 507.505Z" fill="#083332"/>
<path d="M215 517.493L166.25 566.182C165 567.43 163.75 567.43 161.25 567.43H92.5C88.75 567.43 86.25 564.933 86.25 561.188C86.25 557.443 88.75 554.946 92.5 554.946H158.75L205 508.753V455.071C205 451.325 207.5 448.828 211.25 448.828C215 448.828 217.5 451.325 217.5 455.071V505.008H350C353.75 505.008 356.25 507.505 356.25 511.25C356.25 514.996 353.75 517.493 350 517.493H215ZM206.25 176.669L121.25 103.011C118.75 100.514 118.75 96.7691 120 94.2722C122.5 91.7753 126.25 91.7753 128.75 93.0238L215 166.682H312.5C316.25 166.682 318.75 169.178 318.75 172.924C318.75 176.669 316.25 179.166 312.5 179.166H218.75V224.11C218.75 227.855 216.25 230.352 212.5 230.352C208.75 230.352 206.25 227.855 206.25 224.11V176.669ZM525 480.039C521.25 480.039 518.75 477.543 518.75 473.797C518.75 470.052 521.25 467.555 525 467.555H593.75C597.5 467.555 600 470.052 600 473.797C600 477.543 597.5 480.039 593.75 480.039H525ZM486.25 140.464C483.75 142.961 480 142.961 477.5 141.713C475 139.216 475 135.471 476.25 132.974L551.25 45.5831C553.75 43.0862 557.5 43.0863 560 44.3347C562.5 46.8316 562.5 50.5769 561.25 53.0738L486.25 140.464ZM25 305.258C21.25 305.258 18.75 302.761 18.75 299.016C18.75 295.271 21.25 292.774 25 292.774H112.5C116.25 292.774 118.75 295.271 118.75 299.016C118.75 302.761 116.25 305.258 112.5 305.258H25ZM443.75 417.618C443.75 421.363 441.25 423.86 437.5 423.86C433.75 423.86 431.25 421.363 431.25 417.618V336.469C431.25 332.724 433.75 330.227 437.5 330.227C441.25 330.227 443.75 332.724 443.75 336.469V417.618Z" fill="#083332"/>
</svg>
