<svg width="1200" height="1190" viewBox="0 0 1200 1190" fill="none" xmlns="http://www.w3.org/2000/svg">
<path d="M1096.2 736.674C1085.21 736.674 1074.35 738.451 1064.02 741.818L1023.78 672.11C1045.4 652.643 1058.25 624.607 1058.25 594.926C1058.25 565.216 1045.39 537.173 1023.78 517.746L1064.03 448.028C1074.36 451.399 1085.22 453.173 1096.21 453.173C1153.44 453.173 1200 406.612 1200 349.377C1200 335.373 1197.26 321.777 1191.84 308.966C1187.22 298.046 1174.63 292.932 1163.71 297.55C1152.79 302.167 1147.68 314.762 1152.29 325.682C1155.46 333.172 1157.06 341.146 1157.06 349.375C1157.06 382.933 1129.76 410.233 1096.21 410.233C1085.5 410.233 1074.99 407.418 1065.78 402.06C1047.01 391.223 1035.35 371.033 1035.35 349.375C1035.35 315.817 1062.65 288.517 1096.21 288.517C1102.4 288.517 1108.49 289.435 1114.33 291.25C1125.65 294.77 1137.68 288.446 1141.2 277.124C1144.72 265.803 1138.4 253.768 1127.07 250.25C1117.11 247.154 1106.73 245.581 1096.21 245.581C1038.97 245.581 992.413 292.143 992.413 349.377C992.413 379.049 1005.26 407.083 1026.86 426.536L986.605 496.272C976.281 492.902 965.432 491.128 954.458 491.128C904.586 491.128 862.829 526.488 852.91 573.455H772.447C762.528 526.488 720.769 491.128 670.896 491.128C659.906 491.128 649.043 492.902 638.719 496.27L598.462 426.534C620.077 407.071 632.911 379.049 632.911 349.375C632.911 319.705 620.07 291.671 598.46 272.197L638.731 202.456C649.067 205.82 659.923 207.591 670.896 207.591C728.131 207.591 774.692 161.03 774.692 103.796C774.692 46.5611 728.131 0 670.896 0C613.662 0 567.101 46.5611 567.101 103.796C567.101 133.449 579.94 161.483 601.554 180.966L561.281 250.712C550.945 247.349 540.089 245.577 529.115 245.577C479.242 245.577 437.486 280.937 427.567 327.904H347.132C337.213 280.937 295.454 245.577 245.584 245.577C188.349 245.577 141.788 292.138 141.788 349.372C141.788 379.026 154.625 407.052 176.218 426.522L135.973 496.27C125.642 492.9 114.786 491.125 103.8 491.125C68.7401 491.125 36.2955 508.64 17.0133 537.979C10.5 547.886 13.254 561.201 23.161 567.712C33.0704 574.226 46.3783 571.472 52.894 561.565C64.2096 544.347 83.2409 534.068 103.798 534.068C114.509 534.068 125.011 536.883 134.218 542.238C152.994 553.087 164.656 573.276 164.656 594.926C164.656 616.591 152.994 636.792 134.199 647.653C125.016 652.971 114.504 655.784 103.796 655.784C75.0073 655.784 49.9338 635.36 44.1752 607.219C41.7963 595.603 30.4525 588.115 18.8391 590.489C7.22347 592.866 -0.267189 604.209 2.10938 615.825C11.9368 663.858 54.7033 698.721 103.796 698.721C114.772 698.721 125.628 696.95 135.959 693.589L176.213 763.334C154.611 782.818 141.783 810.847 141.783 840.505C141.783 870.137 154.613 898.161 176.22 917.664L135.961 987.395C125.625 984.032 114.769 982.26 103.796 982.26C46.5611 982.26 0 1028.82 0 1086.06C0 1143.29 46.5611 1189.85 103.796 1189.85C161.03 1189.85 207.591 1143.29 207.591 1086.06C207.591 1056.41 194.752 1028.38 173.131 1008.89L213.381 939.168C223.724 942.533 234.587 944.305 245.574 944.305C302.809 944.305 349.37 897.744 349.37 840.51C349.37 783.261 302.809 736.686 245.574 736.686C234.573 736.686 223.702 738.46 213.371 741.83L173.133 672.11C194.752 652.631 207.589 624.6 207.589 594.933C207.589 565.268 194.743 537.236 173.136 517.774L213.373 448.033C223.709 451.403 234.577 453.178 245.574 453.178C295.447 453.178 337.204 417.817 347.122 370.851H427.558C437.477 417.817 479.235 453.178 529.106 453.178C540.089 453.178 550.95 451.403 561.281 448.033L601.542 517.779C579.928 537.25 567.091 565.27 567.091 594.933C567.091 624.586 579.93 652.617 601.544 672.103L561.283 741.833C550.95 738.46 540.091 736.686 529.106 736.686C479.231 736.686 437.47 772.06 427.556 819.041H390.091C378.233 819.041 368.622 828.652 368.622 840.51C368.622 852.367 378.233 861.978 390.091 861.978H427.556C437.474 908.945 479.233 944.305 529.104 944.305C540.079 944.305 550.936 942.533 561.274 939.17L601.544 1008.89C579.93 1028.38 567.091 1056.41 567.091 1086.06C567.091 1143.29 613.652 1189.85 670.887 1189.85C720.762 1189.85 762.519 1154.49 772.437 1107.53H852.901C862.82 1154.49 904.579 1189.85 954.449 1189.85C1011.68 1189.85 1058.24 1143.29 1058.24 1086.06C1058.24 1056.37 1045.39 1028.33 1023.78 1008.87L1064.02 939.158C1074.36 942.531 1085.22 944.305 1096.2 944.305C1153.44 944.305 1200 897.744 1200 840.51C1200 783.249 1153.44 736.674 1096.2 736.674ZM670.887 42.9377C704.445 42.9377 731.745 70.2378 731.745 103.796C731.745 137.354 704.445 164.654 670.887 164.654C660.178 164.654 649.667 161.844 640.474 156.519C621.696 145.653 610.029 125.452 610.029 103.796C610.029 70.2378 637.329 42.9377 670.887 42.9377ZM103.791 1146.9C70.2331 1146.9 42.933 1119.6 42.933 1086.05C42.933 1052.49 70.2331 1025.19 103.791 1025.19C114.5 1025.19 125.011 1028 134.197 1033.32C152.979 1044.2 164.651 1064.4 164.651 1086.05C164.647 1119.6 137.347 1146.9 103.791 1146.9ZM215.173 787.749C224.328 782.424 234.842 779.612 245.574 779.612C279.13 779.612 306.43 806.926 306.43 840.498C306.43 874.056 279.13 901.356 245.572 901.356C234.847 901.356 224.324 898.546 215.15 893.23C196.377 882.346 184.716 862.14 184.716 840.5C184.714 818.834 196.37 798.631 215.173 787.749ZM245.572 410.23C234.84 410.23 224.328 407.416 215.131 402.067C196.367 391.213 184.714 371.019 184.714 349.372C184.714 315.815 212.014 288.514 245.572 288.514C279.13 288.514 306.43 315.815 306.43 349.372C306.43 382.93 279.13 410.23 245.572 410.23ZM559.544 402.051C559.521 402.062 559.497 402.077 559.479 402.088C550.324 407.413 539.822 410.226 529.111 410.226C495.55 410.228 468.25 382.928 468.25 349.37C468.25 315.812 495.55 288.512 529.108 288.512C539.815 288.512 550.329 291.322 559.528 296.654C578.304 307.504 589.966 327.704 589.966 349.37C589.964 371.045 578.306 391.23 559.544 402.051ZM954.451 534.063C965.146 534.063 975.637 536.878 984.878 542.25C1003.65 553.052 1015.31 573.237 1015.31 594.921C1015.31 616.598 1003.64 636.797 984.862 647.63C984.85 647.635 984.838 647.644 984.826 647.651C975.644 652.969 965.144 655.781 954.451 655.781C920.893 655.781 893.593 628.481 893.593 594.923C893.593 561.363 920.893 534.063 954.451 534.063ZM640.517 542.201C649.674 536.875 660.174 534.058 670.885 534.058C704.445 534.061 731.745 561.361 731.745 594.919C731.745 628.477 704.445 655.777 670.887 655.777C660.178 655.777 649.667 652.967 640.474 647.642C621.696 636.776 610.029 616.575 610.029 594.919C610.029 573.262 621.689 553.073 640.517 542.201ZM559.526 893.214C559.521 893.216 559.514 893.221 559.509 893.225C550.326 898.543 539.812 901.356 529.106 901.356C495.548 901.356 468.248 874.056 468.248 840.498C468.248 806.926 495.548 779.612 529.106 779.612C539.817 779.612 550.319 782.427 559.544 787.789C578.308 798.612 589.964 818.806 589.964 840.498C589.964 862.163 578.301 882.364 559.526 893.214ZM670.887 1146.9C637.329 1146.9 610.029 1119.6 610.029 1086.05C610.029 1064.39 621.696 1044.19 640.484 1033.32C649.667 1028 660.178 1025.19 670.887 1025.19C704.445 1025.19 731.745 1052.49 731.745 1086.05C731.745 1119.6 704.445 1146.9 670.887 1146.9ZM954.451 1146.9C920.893 1146.9 893.593 1119.6 893.593 1086.05C893.593 1052.49 920.893 1025.19 954.451 1025.19C965.141 1025.19 975.644 1028 984.859 1033.34C1003.64 1044.17 1015.31 1064.37 1015.31 1086.05C1015.31 1119.6 988.009 1146.9 954.451 1146.9ZM1026.86 917.65L986.591 987.384C976.26 984.02 965.413 982.248 954.454 982.248C904.576 982.251 862.817 1017.61 852.903 1064.58H772.44C762.521 1017.61 720.762 982.251 670.889 982.251C659.911 982.251 649.057 984.023 638.721 987.386L598.453 917.671C620.067 898.192 632.904 870.16 632.904 840.498C632.904 810.795 620.058 782.752 598.462 763.306L638.724 693.579C649.06 696.943 659.916 698.714 670.889 698.714C720.762 698.714 762.521 663.354 772.44 616.388H852.903C862.822 663.354 904.581 698.714 954.451 698.714C965.415 698.714 976.26 696.945 986.591 693.579L1026.86 763.315C1005.25 782.79 992.411 810.819 992.411 840.495C992.411 870.158 1005.24 898.18 1026.86 917.65ZM1096.2 901.356C1085.49 901.356 1074.99 898.541 1065.84 893.214C1065.82 893.202 1065.8 893.19 1065.78 893.178C1047.01 882.341 1035.35 862.154 1035.35 840.493C1035.35 818.816 1047.01 798.617 1065.84 787.744C1074.99 782.419 1085.49 779.607 1096.2 779.607C1129.76 779.607 1157.06 806.921 1157.06 840.493C1157.06 874.056 1129.76 901.356 1096.2 901.356Z" fill="url(#paint0_linear_167_651)" fill-opacity="0.2"/>
<defs>
<linearGradient id="paint0_linear_167_651" x1="1036.5" y1="1153" x2="-74.5" y2="-64.5" gradientUnits="userSpaceOnUse">
<stop stop-color="#06413F"/>
<stop offset="1" stop-color="#14EFE8"/>
</linearGradient>
</defs>
</svg>
