<svg width="30" height="27" viewBox="0 0 30 27" fill="none" xmlns="http://www.w3.org/2000/svg">
<path id="Vector" d="M15.7 19.0556H3.276L11.2267 10.7736L14.3333 13.2639L17.44 10.7722L19.5773 12.9986C20.0043 12.763 20.4527 12.5723 20.916 12.4292L18.5053 9.91805L26.3333 3.63889V12.9722C26.8072 13.2177 27.2542 13.5157 27.6667 13.8611V3.08333C27.6653 2.53125 27.4541 2.0022 27.0793 1.61181C26.7046 1.22143 26.1967 1.00147 25.6667 1H3C2.47 1.00147 1.96211 1.22143 1.58734 1.61181C1.21257 2.0022 1.00141 2.53125 1 3.08333V18.3611C1 18.9136 1.21071 19.4435 1.58579 19.8342C1.96086 20.2249 2.46957 20.4444 3 20.4444H15.7C15.68 20.2153 15.6667 19.9847 15.6667 19.75C15.6667 19.5153 15.68 19.2847 15.7 19.0556ZM2.33333 18.0736V3.64028L10.1613 9.91805L2.33333 18.0736ZM25.6667 2.38889C25.6787 2.38889 25.688 2.39583 25.7 2.39583L14.3333 11.5139L2.96667 2.39583C2.97867 2.39583 2.988 2.38889 3 2.38889H25.6667ZM23 13.5C21.4092 13.5018 19.8841 14.1609 18.7593 15.3326C17.6345 16.5043 17.0018 18.093 17 19.75C17.0095 19.9826 17.0318 20.2145 17.0667 20.4444C17.2273 21.9682 17.921 23.377 19.0155 24.4018C20.1099 25.4265 21.5284 25.9955 23 26H23.6667V24.6111H23C21.8807 24.6079 20.7999 24.185 19.9552 23.4199C19.1106 22.6549 18.5585 21.5987 18.4 20.4444C18.3616 20.215 18.3393 19.9829 18.3333 19.75C18.3327 18.7929 18.6035 17.857 19.1117 17.0596C19.6199 16.2622 20.3429 15.639 21.1899 15.2681C22.0369 14.8972 22.9702 14.7951 23.8727 14.9748C24.7752 15.1544 25.6066 15.6077 26.2627 16.2778H25V16.9903C24.4263 16.5309 23.7236 16.2805 23 16.2778C22.4536 16.2762 21.9152 16.4145 21.4322 16.6805C20.9492 16.9466 20.5364 17.3323 20.2302 17.8036C19.9239 18.2749 19.7335 18.8174 19.6758 19.3834C19.6181 19.9494 19.6949 20.5214 19.8993 21.0492C20.1038 21.577 20.4297 22.0444 20.8483 22.4102C21.2669 22.7759 21.7654 23.0289 22.2999 23.1469C22.8344 23.2648 23.3886 23.244 23.9136 23.0864C24.4386 22.9288 24.9184 22.6392 25.3107 22.2431C25.5403 22.6264 25.8836 22.9214 26.2886 23.0834C26.6936 23.2453 27.1382 23.2654 27.5552 23.1406C27.9721 23.0159 28.3387 22.753 28.5994 22.3918C28.8601 22.0306 29.0007 21.5908 29 21.1389V19.75C28.981 18.0986 28.3427 16.5203 27.2216 15.3525C26.1005 14.1847 24.5854 13.5198 23 13.5ZM23 21.8333C22.5877 21.832 22.186 21.6977 21.8499 21.4491C21.5137 21.2004 21.2597 20.8495 21.1227 20.4444C21.0437 20.222 21.0022 19.9871 21 19.75C21 19.1975 21.2107 18.6676 21.5858 18.2769C21.9609 17.8862 22.4696 17.6667 23 17.6667C23.5304 17.6667 24.0391 17.8862 24.4142 18.2769C24.7893 18.6676 25 19.1975 25 19.75C24.9978 19.9871 24.9563 20.222 24.8773 20.4444C24.7403 20.8495 24.4863 21.2004 24.1501 21.4491C23.814 21.6977 23.4123 21.832 23 21.8333ZM27.6667 21.1389C27.6667 21.3231 27.5964 21.4997 27.4714 21.6299C27.3464 21.7602 27.1768 21.8333 27 21.8333C26.8232 21.8333 26.6536 21.7602 26.5286 21.6299C26.4036 21.4997 26.3333 21.3231 26.3333 21.1389V16.3514C27.171 17.2701 27.6469 18.4831 27.6667 19.75V21.1389Z" fill="white" stroke="white" stroke-width="0.5"/>
</svg>
